<?xml version="1.0" encoding="UTF-8"?>
<svg width="431px" height="427px" viewBox="0 0 431 427" version="1.1" xmlns="http://www.w3.org/2000/svg" xmlns:xlink="http://www.w3.org/1999/xlink">
    <title>Group 118 Copy 2</title>
    <defs>
        <filter id="filter-1">
            <feColorMatrix in="SourceGraphic" type="matrix" values="0 0 0 0 0.007843 0 0 0 0 0.043137 0 0 0 0 0.082353 0 0 0 1.000000 0"></feColorMatrix>
        </filter>
        <polygon id="path-2" points="0.0752597277 0.308649057 17.9699298 0.308649057 17.9699298 23.9702084 0.0752597277 23.9702084"></polygon>
        <polygon id="path-4" points="0.0519240784 0.124732466 22.9005678 0.124732466 22.9005678 4.56721455 0.0519240784 4.56721455"></polygon>
        <polygon id="path-6" points="0 0.213077333 22.8221478 0.213077333 22.8221478 3.84571733 0 3.84571733"></polygon>
    </defs>
    <g id="Homepage-👋" stroke="none" stroke-width="1" fill="none" fill-rule="evenodd" opacity="0.261579241">
        <g id="Group-118-Copy-2" transform="translate(-109.000000, -95.000000)" filter="url(#filter-1)">
            <g transform="translate(109.000000, 95.000000)">
                <g id="Group-3" transform="translate(218.000000, 0.000000)">
                    <mask id="mask-3" fill="white">
                        <use xlink:href="#path-2"></use>
                    </mask>
                    <g id="Clip-2"></g>
                    <path d="M3.88805908,0.469581283 L3.13837292,14.0510092 C2.85923446,19.0980734 5.02056369,21.3881624 8.16020677,21.5524854 C11.5789883,21.7350666 13.9450191,19.6171254 14.2214991,14.6404854 L14.9685268,1.05905751 L17.9699298,1.21816392 L17.2361945,14.5622364 C16.8480591,21.5707435 12.9640468,24.21817 7.92360369,23.9521232 C3.16229908,23.6991179 -0.283067077,20.866502 0.105068308,13.7875707 L0.846779077,0.307866566 L3.88805908,0.469581283 Z" id="Fill-1" fill="#FFFFFF" mask="url(#mask-3)"></path>
                </g>
                <path d="M251.129322,26.4642489 L249.04007,21.0835566 C248.13831,19.0075211 247.63238,17.6732949 247.136937,16.2720997 L247.06878,16.2643726 C246.214205,17.4852668 245.351766,18.5335875 243.889028,20.3031115 L240.365872,24.7668453 L237,24.2362456 L245.773811,14.0595508 L240.911122,2 L244.274373,2.53059963 L246.450131,8.23068205 C247.050431,9.81732949 247.506553,11.0433752 247.944327,12.3672986 L248.015104,12.3776015 C248.874922,11.1232227 249.608913,10.2217185 250.686306,8.9003709 L254.634128,4.16618586 L258,4.69678549 L249.331045,14.4484855 L254.529272,27 L251.129322,26.4642489 Z" id="Fill-4" fill="#FFFFFF"></path>
                <path d="M268.506519,27.9463473 C269.173069,28.2944736 270.192346,28.6451786 271.286836,28.9855687 C277.270223,30.844821 281.56519,28.5265578 283.393664,22.7038232 C285.025025,17.6289154 283.147274,13.4978167 277.223539,11.6591942 C275.776322,11.2079193 274.632553,11.0299881 273.854479,10.9268396 L268.506519,27.9463473 Z M271.665499,8 C273.481004,8.28365846 275.571429,8.72203972 277.791533,9.41313488 C281.81158,10.6612321 284.381818,12.4766463 285.730479,14.8284328 C287.107669,17.1879554 287.439647,20.0632208 286.352938,23.5186966 C285.248073,27.0360615 283.256204,29.5451495 280.597785,30.9299186 C277.90565,32.3043727 274.251297,32.3636831 270.036731,31.0562755 C268.039675,30.4348056 266.400533,29.8210718 265,29.2099168 L271.665499,8 Z" id="Fill-6" fill="#FFFFFF"></path>
                <path d="M298.919324,31.7012012 C299.663703,29.9722205 300.062568,26.8908163 297.062188,25.549 C294.356511,24.3424261 292.123375,26.3790168 291.117321,28.2167217 L298.919324,31.7012012 Z M290.26878,30.2002763 C288.785104,33.9976694 290.423753,36.5646223 293.126889,37.773848 C295.039917,38.6250793 296.36608,38.8054024 297.516945,38.797447 L297.156188,40.9957982 C296.063755,41.0329235 294.204079,40.8393413 291.866781,39.7971797 C287.342076,37.7764998 285.926994,33.4328337 287.812076,28.8398973 C289.720023,24.1833175 293.810295,21.7356961 298.121594,23.6609107 C302.88765,25.7903148 302.36938,30.7306384 301.213433,33.5495133 C300.982244,34.1196527 300.738352,34.535987 300.560514,34.7958644 L290.26878,30.2002763 Z" id="Fill-8" fill="#FFFFFF"></path>
                <path d="M301.716716,40.29663 C302.232254,41.1997445 303.336605,42.4415269 304.663395,43.1214285 C306.592084,44.1066443 308,43.624299 308.630684,42.4415269 C309.292771,41.1997445 308.884527,40.1632153 307.301276,38.4519159 C305.181551,36.1659073 304.70265,34.1133744 305.613346,32.3995093 C306.824992,30.1237634 309.732417,29.2026892 312.867517,30.8062306 C314.343474,31.5631021 315.437357,32.609894 316,33.5001801 L314.327772,35.0524082 C313.929997,34.4340826 313.157998,33.3616342 311.7684,32.6535103 C310.232254,31.8658508 308.868826,32.3353677 308.303566,33.4001192 C307.672882,34.5803256 308.235525,35.5450161 309.769055,37.2717095 C311.786719,39.4679198 312.467125,41.3588158 311.318286,43.5165411 C309.981027,46.0283283 307.03173,46.8134222 303.564279,45.0405468 C301.967942,44.2220993 300.709192,43.0521555 300,41.9386563 L301.716716,40.29663 Z" id="Fill-10" fill="#FFFFFF"></path>
                <path d="M325.734645,32.8664334 C325.211345,33.7526106 324.146338,34.0779831 323.147072,33.4801442 C322.203029,32.9193395 321.97425,31.8215378 322.529105,30.9538778 C323.023479,30.0491834 324.138449,29.7132297 325.077233,30.2740343 C326.016017,30.834839 326.244796,31.9326407 325.734645,32.8664334 L325.734645,32.8664334 Z M312,49.4710136 L320.430647,35.1810754 L322.991923,36.7100617 L314.558646,51 L312,49.4710136 Z" id="Fill-12" fill="#FFFFFF"></path>
                <path d="M333.806536,51.4201959 C334.095755,51.0097421 334.319835,50.6326377 334.437086,50.2273146 C334.973836,48.5264967 334.585604,46.5588839 332.774726,45.3275225 C330.458365,43.7549715 327.394203,44.5476603 325.236782,47.620933 C323.41027,50.2273146 323.235696,53.3493286 325.882966,55.1501946 C327.388991,56.1737637 329.426555,56.1404144 331.034198,54.9654904 C331.464119,54.6473887 331.844534,54.2189776 332.131148,53.8085238 L333.806536,51.4201959 Z M331.94094,59.1880337 C329.786125,62.2613064 327.884052,63.6825026 325.765715,63.9441669 C323.629139,64.2340499 321.445663,63.3567049 319.746824,62.2023037 C318.126154,61.1017744 316.612311,59.5061354 316,58.0361978 L317.902074,56.6124362 C318.438823,57.7873602 319.465422,59.2572978 321.138204,60.3937417 C323.644773,62.0996902 326.406688,62.0304261 328.756921,58.6852278 L329.796548,57.2024635 L329.739225,57.1639835 C328.121159,57.8874083 325.948106,57.8720163 323.887092,56.4687774 C320.515471,54.1779322 320.109,49.7681194 322.685919,46.0894274 C325.843882,41.5898278 330.596461,41.0921526 333.689285,43.1957282 C336.031701,44.7888019 336.485072,46.8385055 336.300076,48.3340965 L336.357399,48.3725765 L337.855607,46.4716625 L340,47.9313387 C339.288677,48.826641 338.483552,49.8579062 337.347519,51.4766333 L331.94094,59.1880337 Z" id="Fill-14" fill="#FFFFFF"></path>
                <path d="M341.669041,54.5324393 C342.754578,53.2087713 343.59281,52.079135 344.38939,51 L346.41208,52.732995 L344.800697,54.9125287 L344.87619,54.9789779 C346.479764,54.3198019 348.908554,54.3703032 350.983308,56.1458258 C352.696217,57.6103661 354.521063,60.9753534 350.939054,65.3450526 L344.65752,73 L342.400542,71.0703153 L348.44258,63.7077444 C350.160695,61.6159236 350.821909,59.2503322 348.666456,57.4083605 C347.161803,56.1219041 345.131304,56.2308808 343.652683,57.1744593 C343.306457,57.3764649 342.905564,57.7087109 342.580163,58.1047481 L336.254375,65.8128549 L334,63.8831702 L341.669041,54.5324393 Z" id="Fill-16" fill="#FFFFFF"></path>
                <path d="M404.553265,111.684837 L392.33089,118.030576 C387.789113,120.387413 386.885513,123.413476 388.320176,126.190894 C389.884302,129.211666 392.925364,130.150698 397.406373,127.825602 L409.626106,121.479864 L411,124.135605 L398.994278,130.367601 C392.684932,133.644954 388.417934,131.676955 386.111376,127.222506 C383.926356,123.011412 384.663503,118.604575 391.033617,115.298126 L403.163518,109 L404.553265,111.684837 Z" id="Fill-18" fill="#FFFFFF"></path>
                <polygon id="Fill-20" fill="#FFFFFF" points="414 132.821795 393.158031 142 392 139.178205 412.844554 130"></polygon>
                <path d="M401.065786,154.715559 C401.147787,155.481384 401.425533,156.546648 401.756183,157.670211 C403.5655,163.818006 407.977692,166.139328 413.97965,164.366538 C419.230371,162.848138 421.687761,158.89182 419.896961,152.812923 C419.457858,151.326322 418.963206,150.250458 418.608749,149.532332 L401.065786,154.715559 Z M419.859929,146 C420.650843,147.703893 421.462919,149.728426 422.1348,152.01 C423.348947,156.138562 423.261655,159.360854 422.021057,161.843822 C420.788394,164.363888 418.524103,166.290373 414.963664,167.342388 C411.337096,168.415603 408.070274,168.158561 405.380107,166.69316 C402.679358,165.19066 400.557908,162.119412 399.282922,157.792107 C398.679816,155.743725 398.26981,153.997433 398,152.460485 L419.859929,146 Z" id="Fill-22" fill="#FFFFFF"></path>
                <path d="M414.771974,182.380325 C416.599238,182.066374 419.337539,180.707676 418.719799,177.372932 C418.166948,174.373245 415.239172,173.571218 413.173118,173.721598 L414.771974,182.380325 Z M411.078512,174.083038 C407.14626,174.903533 405.988646,177.739648 406.541498,180.739335 C406.93083,182.863124 407.540783,184.105739 408.205243,185.095081 L406.206672,186 C405.557786,185.076614 404.659727,183.367029 404.179551,180.773633 C403.252941,175.75041 405.98086,172.125459 410.790406,171.209987 C415.662246,170.281324 419.976044,172.457878 420.858529,177.243658 C421.83705,182.533343 417.523253,184.820704 414.572117,185.38265 C413.972546,185.496095 413.497561,185.517201 413.188691,185.509286 L411.078512,174.083038 Z" id="Fill-24" fill="#FFFFFF"></path>
                <path d="M408.995183,190.253106 C408.52367,191.183423 408.093157,192.790099 408.252037,194.264613 C408.482668,196.407711 409.651202,197.296566 410.97349,197.151447 C412.364968,197.001145 413.005612,196.081193 413.566815,193.816299 C414.312524,190.786937 415.755253,189.237273 417.677184,189.027368 C420.226945,188.747496 422.5717,190.62627 422.945836,194.106537 C423.122654,195.749492 422.845896,197.236963 422.415383,198.198377 L420.214132,197.695643 C420.511391,197.019285 420.982904,195.783181 420.813774,194.24129 C420.634394,192.533549 419.504299,191.675792 418.31014,191.805362 C416.985289,191.950482 416.490712,192.953358 415.89107,195.187156 C415.163299,198.081764 413.961452,199.701397 411.544944,199.968312 C408.731238,200.279282 406.476173,198.291668 406.058473,194.438238 C405.868843,192.66312 406.155851,190.970928 406.696554,189.760738 L408.995183,190.253106 Z" id="Fill-26" fill="#FFFFFF"></path>
                <g id="Group-30" transform="translate(408.000000, 202.000000)">
                    <mask id="mask-5" fill="white">
                        <use xlink:href="#path-4"></use>
                    </mask>
                    <g id="Clip-29"></g>
                    <path d="M21.1422205,3.83674182 C20.1317358,3.89172364 19.2823053,3.19005091 19.2199617,2.03543273 C19.1628135,0.946269091 19.9291194,0.15296 20.9447994,0.132014545 C21.9526864,0.0429963636 22.8410817,0.778705455 22.89823,1.86786909 C22.9579758,2.95441455 22.1864747,3.74772364 21.1422205,3.83674182 L21.1422205,3.83674182 Z M0.0519240784,1.61128727 L16.3417688,0.726341818 L16.5002253,3.67965091 L0.207782902,4.56721455 L0.0519240784,1.61128727 Z" id="Fill-28" fill="#FFFFFF" mask="url(#mask-5)"></path>
                </g>
                <path d="M418.054238,222.697209 C418.566437,222.705304 419.010343,222.67832 419.422728,222.543403 C421.172084,222.011826 422.629881,220.527729 422.666654,218.250314 C422.711307,215.336087 420.323673,213.155813 416.499255,213.091052 C413.25533,213.037085 410.497337,214.710067 410.442177,218.039842 C410.413283,219.936788 411.579521,221.674531 413.483849,222.373406 C413.990795,222.556894 414.571287,222.637845 415.083485,222.64594 L418.054238,222.697209 Z M410.389643,225.619531 C406.565226,225.557469 404.290538,224.745263 402.882648,223.072281 C401.440612,221.399298 400.965186,219.005854 401.00196,216.866056 C401.033479,214.828795 401.545678,212.594554 402.459756,211.204899 L404.731817,212.014407 C404.030499,213.161209 403.352821,214.904349 403.321301,217.009069 C403.268767,220.168847 404.87103,222.511022 409.036913,222.578481 L410.883456,222.610862 L410.883456,222.540704 C409.359993,221.566597 408.162236,219.688539 408.204262,217.092718 C408.269929,212.8482 411.80016,209.925877 416.375802,210.001431 C421.978469,210.095874 425.059541,213.90056 424.999128,217.79699 C424.949222,220.740899 423.457279,222.330232 422.078282,223.045297 L422.075655,223.115455 L424.534209,223.298943 L424.489556,226 C423.331199,225.908256 421.999482,225.816512 419.984834,225.784131 L410.389643,225.619531 Z" id="Fill-31" fill="#FFFFFF"></path>
                <path d="M419.545575,231.268491 C421.252312,231.446342 422.65786,231.527421 424,231.598038 L423.714663,234.237023 L421.003963,234.087942 L420.990753,234.187329 C422.441215,235.160275 423.775429,237.216016 423.482166,239.920387 C423.244386,242.151362 421.500661,245.522672 415.865258,244.931582 L406,243.890634 L406.314399,240.950873 L415.809775,241.949973 C418.504624,242.232441 420.82959,241.487039 421.130779,238.680666 C421.34214,236.721696 420.103038,235.087043 418.488771,234.37041 C418.126816,234.195175 417.622193,234.040864 417.109643,233.98594 L407.175694,232.942377 L407.492734,230 L419.545575,231.268491 Z" id="Fill-33" fill="#FFFFFF"></path>
                <path d="M385.087342,311.716013 C384.587713,312.282114 383.993913,313.188395 383.397497,314.17258 C380.13029,319.555735 381.388518,324.289691 386.690863,327.460377 C391.305238,330.262318 395.828058,329.41836 399.061259,324.097528 C399.853864,322.796534 400.301176,321.724058 400.58892,320.989165 L385.087342,311.716013 Z M404,319.560928 C403.285871,321.261829 402.354625,323.18865 401.140867,325.185585 C398.946161,328.800323 396.536955,330.869968 393.90017,331.617845 C391.245073,332.394286 388.325775,332.028138 385.178897,330.145462 C381.977086,328.226431 379.97857,325.69196 379.248746,322.773163 C378.537232,319.823205 379.355996,316.250016 381.655336,312.461293 C382.743533,310.669505 383.745407,309.2153 384.681884,308 L404,319.560928 Z" id="Fill-35" fill="#FFFFFF"></path>
                <path d="M374.512994,340.26736 C375.993058,341.405297 378.861339,342.517313 380.889867,339.847438 C382.708456,337.444551 381.293998,334.756532 379.771946,333.333463 L374.512994,340.26736 Z M378.068822,332.034815 C374.780665,329.68377 371.90976,330.71543 370.085922,333.115725 C368.797426,334.813558 368.301447,336.091469 368.028528,337.237182 L366,336.366233 C366.233556,335.274954 366.873868,333.476029 368.448404,331.397156 C371.500381,327.379383 376.021925,326.980198 379.981884,329.909284 C383.994328,332.879843 385.348429,337.506762 382.443409,341.33531 C379.233979,345.57082 374.604842,343.914461 372.172183,342.115536 C371.681452,341.750048 371.340303,341.413074 371.135613,341.179784 L378.068822,332.034815 Z" id="Fill-37" fill="#FFFFFF"></path>
                <path d="M374.914681,350.683933 L366.044372,346.949078 C364.588244,346.359087 363.30418,345.782265 362.056071,345.105356 L361.991868,345.181738 C362.746897,346.372256 363.458268,347.665496 364.22357,349.050922 L368.882152,357.647937 L366.840491,360 L359,344.151888 L360.861892,342 L377,348.276558 L374.914681,350.683933 Z" id="Fill-39" fill="#FFFFFF"></path>
                <path d="M351.850188,365.60757 C353.138588,367.019042 355.816543,368.640217 358.294849,366.252814 C360.522929,364.10469 359.561953,361.117748 358.281539,359.407852 L351.850188,365.60757 Z M356.798814,357.792053 C353.907901,354.831997 350.862592,355.404651 348.637174,357.550087 C347.058618,359.069099 346.345207,360.286997 345.882022,361.413485 L344,360.182144 C344.415269,359.106738 345.360273,357.372645 347.287549,355.517569 C351.016987,351.923022 355.606246,352.277906 359.072148,355.942354 C362.580641,359.657884 363.152968,364.612819 359.59922,368.037989 C355.672796,371.826109 351.325777,369.352674 349.198853,367.102386 C348.767612,366.648026 348.482779,366.244749 348.320398,365.97052 L356.798814,357.792053 Z" id="Fill-41" fill="#FFFFFF"></path>
                <polygon id="Fill-43" fill="#FFFFFF" points="356 380.131177 353.711304 382 338 363.866256 340.291342 362"></polygon>
                <path d="M337.574297,374.51583 C335.595356,371.889414 332.431708,370.481943 329.703693,372.426577 C327.03146,374.335054 327.379434,377.749138 329.382281,380.40138 C331.098248,382.676575 334.309709,384.716761 337.343199,382.552614 C340.350125,380.406545 339.332764,376.845258 337.574297,374.51583 M326.922551,382.19881 C323.267489,377.351431 325.40315,372.744226 328.521641,370.520681 C332.059827,368.000147 336.867722,368.52698 340.055277,372.746808 C343.365021,377.1345 342.180313,381.80885 338.533219,384.412024 C334.771905,387.092674 330.091512,386.395395 326.922551,382.19881" id="Fill-45" fill="#FFFFFF"></path>
                <path d="M320.442134,385.28555 C320.216488,384.896757 319.980466,384.561223 319.705541,384.284274 C318.1727,382.723775 315.934389,382.4415 314.108467,383.554621 C311.416269,385.197672 311.156905,388.414539 313.068417,391.713957 C314.738721,394.600615 317.628035,396.137148 320.320233,394.494096 C322.060565,393.434234 322.960558,391.194678 322.317336,388.931154 C322.21359,388.55035 322.076127,388.11096 321.87123,387.754122 L320.442134,385.28555 Z M325.183307,387.583692 C326.249293,389.42913 327.170035,390.880448 328,392.182639 L325.709816,393.578035 L324.184756,391.213319 L324.125102,391.245274 C324.13029,393.620642 323.03318,395.657813 320.74559,397.053209 C317.358297,399.119672 313.12029,397.761558 310.588898,393.388964 C307.593244,388.214816 309.183145,383.783636 312.456318,381.78641 C314.36783,380.617366 316.445336,380.478892 318.113046,381.394953 L318.167512,381.357672 L313.639018,373.536533 L316.162629,372 L325.183307,387.583692 Z" id="Fill-47" fill="#FFFFFF"></path>
                <path d="M308.1093,397.924485 C308.791404,399.473596 309.40867,400.712884 310,401.892291 L307.658021,402.931107 L306.454613,400.616553 L306.394961,400.645192 C306.187477,402.436433 305.373101,404.352644 302.875509,405.459151 C300.842164,406.359979 298.756947,405.805423 297.348648,404.360454 L297.283809,404.38649 C297.190441,405.427909 296.889589,406.336547 296.477214,407.075954 C295.852167,408.166841 295.045572,408.932284 293.629492,409.559739 C291.653205,410.434531 288.170063,410.460566 285.879956,405.261282 L282,396.44567 L284.622082,395.281884 L288.33605,403.730396 C289.617266,406.641162 291.458688,407.893468 293.647647,406.924949 C295.190811,406.240216 295.888477,404.563531 295.776954,403.058681 C295.725083,402.600456 295.629122,402.051108 295.411263,401.556434 L291.341979,392.303426 L293.964061,391.142244 L297.908855,400.116672 C298.959244,402.498918 300.800667,403.753828 302.834013,402.853 C304.530196,402.100575 305.163023,400.192175 305.028159,398.624839 C304.973694,398.169219 304.818081,397.645905 304.626158,397.213717 L300.650241,388.176803 L303.303446,387 L308.1093,397.924485 Z" id="Fill-49" fill="#FFFFFF"></path>
                <path d="M270.666561,410.172251 C271.196669,411.957614 272.89141,414.525211 276.184507,413.537674 C279.142941,412.646291 279.606116,409.642099 279.209874,407.604654 L270.666561,410.172251 Z M278.594091,405.562011 C277.303625,401.739203 274.305032,400.907593 271.346599,401.796376 C269.250261,402.42788 268.066887,403.171132 267.148568,403.94297 L266,402.058853 C266.854064,401.307805 268.476517,400.218915 271.03603,399.449676 C275.989063,397.960574 279.970231,400.265693 281.458819,404.9461 C282.976856,409.691476 281.28747,414.231549 276.564686,415.647885 C271.346599,417.220148 268.527386,413.184239 267.611744,410.312585 C267.424332,409.730458 267.349367,409.25748 267.322594,408.948224 L278.594091,405.562011 Z" id="Fill-51" fill="#FFFFFF"></path>
                <path d="M264.968836,414.582485 C265.315141,416.222392 265.666616,417.552882 266,418.821489 L263.433718,419.360389 L262.759197,416.794812 L262.655822,416.81544 C262.180298,418.460503 260.65035,420.324737 258.019459,420.876529 C255.848586,421.332918 252.152934,420.742449 251.008057,415.327663 L249,405.844052 L251.8609,405.243268 L253.791426,414.363315 C254.339313,416.957255 255.745211,418.888529 258.471724,418.31353 C260.381575,417.911289 261.544542,416.261069 261.730617,414.543808 C261.784889,414.154459 261.77972,413.643922 261.676345,413.148856 L259.655366,403.600783 L262.516266,403 L264.968836,414.582485 Z" id="Fill-53" fill="#FFFFFF"></path>
                <path d="M243.071957,427 L242.420982,422.33227 L238.055145,422.894054 L237.748487,420.693516 L242.117014,420.131731 L240.903833,411.427955 C240.626765,409.429348 239.878951,408.37309 238.181574,408.590555 C237.38534,408.694109 236.847344,408.864975 236.441157,409.017718 L236,406.835302 C236.551446,406.493571 237.460659,406.206207 238.67384,406.048286 C240.06187,405.872242 241.30195,406.185496 242.135844,406.858601 C243.063887,407.689628 243.604573,409.043607 243.870881,410.946425 L245.094822,419.74599 L247.693342,419.412026 L248,421.612564 L245.39879,421.949117 L245.942165,425.850542 L243.071957,427 Z" id="Fill-55" fill="#FFFFFF"></path>
                <path d="M164.004006,414.046101 L161.142049,413.235581 C158.149185,412.388099 155.80315,413.539196 155.120387,416.084281 C154.340087,418.996344 156.036727,420.794273 158.988522,421.665516 C160.372015,422.053615 161.339691,422.185621 161.822245,422.18302 L164.004006,414.046101 Z M164.114378,425 C162.587145,424.886474 160.518322,424.479894 158.590671,423.933387 C155.597808,423.088546 153.819031,421.979691 152.805153,420.340171 C152.009452,419.049147 151.773308,417.343623 152.232762,415.624898 C153.020763,412.678513 155.346264,411.239643 157.841172,411.091795 L157.856573,411.023152 C156.355007,409.922218 155.792883,408.021324 155.887854,405.592405 C156.021326,402.25 156.072662,399.987409 155.851919,399 L158.744678,399.81844 C158.929486,400.549756 158.901251,402.603777 158.770346,405.552803 C158.598371,408.779041 159.437708,410.297116 161.948017,411.118197 L164.586665,411.862713 L167.17141,402.205118 L170,403.005077 L164.114378,425 Z" id="Fill-57" fill="#FFFFFF"></path>
                <path d="M140.026766,403.435098 C139.350957,405.204842 139.07961,408.318527 142.164265,409.524082 C144.939175,410.607219 147.104833,408.459574 148.036629,406.567412 L140.026766,403.435098 Z M148.807153,404.536863 C150.13829,400.656733 148.377093,398.155139 145.602184,397.069341 C143.636196,396.302896 142.292259,396.183139 141.132634,396.24967 L141.401421,394.024849 C142.502169,393.937027 144.381121,394.043478 146.782288,394.980245 C151.42591,396.797892 153.041194,401.087858 151.341434,405.78766 C149.621195,410.551332 145.604743,413.196634 141.176152,411.46947 C136.281662,409.556017 136.591407,404.57146 137.633278,401.686644 C137.845748,401.103826 138.071018,400.675361 138.23997,400.406573 L148.807153,404.536863 Z" id="Fill-59" fill="#FFFFFF"></path>
                <path d="M137.313955,395.436638 C136.743006,394.560555 135.558217,393.373768 134.16703,392.757454 C132.145921,391.860996 130.727928,392.400908 130.135534,393.597882 C129.519015,394.858525 129.982744,395.869586 131.679511,397.502055 C133.952588,399.682076 134.539621,401.696558 133.684537,403.438537 C132.545317,405.748443 129.612833,406.784971 126.329201,405.325681 C124.779863,404.638058 123.616519,403.644824 123,402.786568 L124.637795,401.174473 C125.0774,401.770414 125.916401,402.801849 127.366561,403.448724 C128.980231,404.164362 130.349975,403.639731 130.886078,402.559907 C131.473111,401.35784 130.856592,400.425728 129.205395,398.777979 C127.042218,396.684547 126.256827,394.838151 127.334394,392.645396 C128.588876,390.096096 131.574971,389.194546 135.204389,390.806641 C136.879712,391.550293 138.21997,392.655583 139,393.73286 L137.313955,395.436638 Z" id="Fill-61" fill="#FFFFFF"></path>
                <path d="M112.468147,389.958926 C111.505301,391.577313 110.752,394.569752 113.722765,396.232802 C116.393801,397.725081 118.940171,395.972704 120.186831,394.2755 L112.468147,389.958926 Z M121.284953,392.418034 C123.242475,388.844972 121.818099,386.128394 119.149716,384.633488 C117.255853,383.572079 115.897789,383.2463 114.701526,383.122819 L115.316899,381 C116.45746,381.086699 118.367237,381.486041 120.68019,382.783904 C125.152252,385.285047 126.146928,389.722474 123.688089,394.039048 C121.194769,398.410793 116.680267,400.354959 112.415098,397.972042 C107.699009,395.334282 108.778564,390.523785 110.287818,387.875516 C110.592852,387.342184 110.889929,386.955978 111.102126,386.72478 L121.284953,392.418034 Z" id="Fill-63" fill="#FFFFFF"></path>
                <path d="M99.845956,380.49225 C102.445993,382.374579 105.785585,383.95215 107.555878,381.365548 C108.653615,379.77005 108.063517,378.323089 106.847246,377.49845 C105.074376,376.297345 103.237085,376.668689 102.049159,377.513816 C101.806936,377.751988 101.58275,377.961989 101.410101,378.207845 L99.845956,380.49225 Z M99.946453,375.321607 C100.737545,374.166599 101.456485,373.001348 101.938355,372 L104.128674,373.482814 L103.198432,375.308802 L103.252546,375.347217 C104.698156,374.835018 106.798286,374.847823 108.707728,376.143685 C111.392801,377.961989 111.485568,380.845667 110.184261,382.740801 C107.973327,385.962529 103.88645,385.773015 98.7482198,382.208114 L98.5420721,382.510311 C97.7870564,383.611538 96.7614718,385.816552 99.4723134,387.655344 C100.71693,388.497911 102.311997,389.01267 103.64165,389.028036 L103.097935,391 C101.502868,390.964146 99.5650799,390.298288 97.9030144,389.174013 C93.8058298,386.397897 94.7180332,382.940558 96.5501704,380.274565 L99.946453,375.321607 Z" id="Fill-65" fill="#FFFFFF"></path>
                <path d="M91.8650508,377.860699 C90.6448788,379.399364 89.6719312,380.742055 88.7601251,382 L86.6733385,380.355403 L88.6245504,377.725636 L88.5421423,377.662076 C86.5271306,378.927966 84.1824863,378.885593 82.6114152,377.646186 C82.3376075,377.434322 82.1488663,377.283369 82,377.079449 L83.781079,374.836335 C83.9512119,375.058792 84.1745113,375.278602 84.5014855,375.535487 C86.2107897,376.880826 88.385301,376.525953 90.1265051,374.997881 C90.4641126,374.738347 90.8123534,374.354343 91.0888194,374.002119 L96.6367475,367 L99,368.85911 L91.8650508,377.860699 Z" id="Fill-67" fill="#FFFFFF"></path>
                <path d="M81.0937082,355 C81.9284491,355.216803 83.5697649,355.9369 85.175233,357.397741 C88.7856157,360.6756 88.9315673,365.274927 85.6335724,368.965745 C82.3176535,372.679792 77.3681005,373.108236 73.4606934,369.561954 C72.1957792,368.415994 71.3277511,367.037744 71,366.198922 L73.0074752,364.952303 C73.2584096,365.721439 73.8319739,366.738349 75.0175109,367.817204 C77.762426,370.307861 81.0962687,369.585183 83.3239517,367.094526 C85.8179323,364.301893 85.5746796,360.964671 83.1728789,358.786315 C81.9642969,357.686812 80.8555766,357.268692 79.9926695,356.984782 L81.0937082,355 Z" id="Fill-69" fill="#FFFFFF"></path>
                <path d="M62.0559254,369 L60,366.81746 L67.63249,359.719577 L67.5845539,359.671958 C66.5965379,359.880952 65.5233023,359.846561 64.505992,359.521164 C63.5126498,359.219577 62.551265,358.653439 61.770972,357.822751 C60.229028,356.190476 58.7829561,352.690476 63.0013316,348.767196 L70.2822903,342 L72.3382157,344.185185 L65.3129161,350.716931 C63.3155792,352.571429 62.3568575,354.828042 64.3249001,356.912698 C65.6937417,358.365079 67.770972,358.507937 69.3129161,357.828042 C69.7842876,357.626984 70.159787,357.37037 70.5645806,356.994709 L77.9467377,350.134921 L80,352.320106 L62.0559254,369 Z" id="Fill-71" fill="#FFFFFF"></path>
                <polygon id="Fill-73" fill="#FFFFFF" points="13 289.133107 34.9426515 281 36 283.866893 14.0600186 292"></polygon>
                <path d="M20.554425,268.842939 C20.197852,268.949854 19.7215537,269.128938 19.3858025,269.305349 C17.6992383,270.318374 16.69719,272.35779 17.3270489,274.557578 C18.1963583,277.588636 21.2805846,278.649774 24.7526166,277.602001 C27.9331437,276.642433 30.1272388,274.20743 29.2214914,271.042727 C28.6567006,269.07548 26.8556165,267.701614 24.552207,267.781801 C24.1331686,267.797838 23.7375548,267.883371 23.2820783,268.019688 L20.554425,268.842939 Z M6,270.08316 L25.0154916,264.347137 C26.3767155,263.935512 27.9149246,263.400934 29.0002599,263 L29.7446386,265.59805 L27.0560261,266.557617 L27.0872588,266.656514 C29.1173825,266.98528 30.9783291,268.559612 31.7227078,271.154989 C32.847084,275.089484 30.49162,279.056053 25.7546648,280.483377 C20.507576,282.105821 16.3770552,279.732294 15.2500762,275.800473 C14.5447384,273.336067 15.1719946,271.336745 16.2287,270.22215 L16.2078782,270.152655 L6.83026852,272.983246 L6,270.08316 Z" id="Fill-75" fill="#FFFFFF"></path>
                <path d="M16.1971491,250.678163 C14.3729945,251.006571 11.6484392,252.380628 12.2893584,255.698857 C12.868002,258.683424 15.8027373,259.458465 17.8682096,259.29032 L16.1971491,250.678163 Z M19.9596301,258.909368 C23.8855845,258.060763 25.0195184,255.223323 24.4434696,252.24401 C24.0334889,250.131693 23.415923,248.894254 22.7438661,247.914286 L24.731494,247 C25.3905769,247.911659 26.3039516,249.611496 26.8047508,252.191465 C27.7726166,257.185886 25.0714147,260.816758 20.2710079,261.773081 C15.4057306,262.737285 11.0749852,260.60395 10.1538261,255.845983 C9.13146915,250.583582 13.4310768,248.268966 16.3735965,247.683087 C16.9729986,247.564861 17.4478497,247.541215 17.7592274,247.549097 L19.9596301,258.909368 Z" id="Fill-77" fill="#FFFFFF"></path>
                <path d="M15.9167412,235.163504 C16.1680517,238.531123 17.129699,242.280443 20.242872,241.9204 C22.1661667,241.695711 22.8841967,240.233883 22.7226399,238.693549 C22.4918446,236.454786 21.0250118,235.24201 19.6094669,234.876552 C19.2735315,234.844067 18.9658043,234.808875 18.6657704,234.844067 L15.9167412,235.163504 Z M19.9171941,231.690308 C21.3096594,231.527882 22.6585301,231.300487 23.7355751,231 L24.0227871,233.761231 L22.0328182,234.278286 L22.037947,234.345963 C23.3611738,235.149968 24.7126088,236.833778 24.9613549,239.248502 C25.3152412,242.643193 23.1816663,244.695167 20.8942278,244.960461 C17.0168657,245.409838 14.5165826,242.015148 13.9036927,235.466698 L13.5369846,235.510011 C12.2137578,235.664316 9.8724671,236.35733 10.2263533,239.787213 C10.3904745,241.362739 11.0290083,242.9897 11.8803867,244.056294 L10.0288951,244.979411 C9.02108866,243.680008 8.27741471,241.676762 8.05944132,239.578767 C7.52091881,234.400105 10.7341031,232.751487 13.9498518,232.380616 L19.9171941,231.690308 Z" id="Fill-79" fill="#FFFFFF"></path>
                <path d="M2,223.855831 L6.86787345,223.664455 L6.69105471,219.489921 L8.98701924,219.400612 L9.16651705,223.575147 L18.2458914,223.217913 C20.3328883,223.136259 21.4929264,222.52641 21.4205914,220.903547 C21.3884426,220.140597 21.2625262,219.614953 21.141968,219.221995 L23.4298953,219 C23.7326304,219.551161 23.9469562,220.439143 23.9951794,221.597601 C24.05144,222.924471 23.6120722,224.070171 22.8431786,224.797397 C21.9028244,225.598622 20.4588047,225.986476 18.4736125,226.063026 L9.29243343,226.422812 L9.39691723,228.90814 L7.1009527,229 L6.99378983,226.514672 L2.92427977,226.672876 L2,223.855831 Z" id="Fill-81" fill="#FFFFFF"></path>
                <g id="Group-85" transform="translate(0.000000, 212.000000)">
                    <mask id="mask-7" fill="white">
                        <use xlink:href="#path-6"></use>
                    </mask>
                    <g id="Clip-84"></g>
                    <path d="M22.7701948,3.84571733 L6.45956894,3.58203733 L6.50892424,0.686677333 L22.8221478,0.950357333 L22.7701948,3.84571733 Z M1.88771012,0.213077333 C2.90339012,0.228437333 3.69827012,0.973397333 3.68008659,2.10491733 C3.66450071,3.16987733 2.84104659,3.89179733 1.82536659,3.84059733 C0.814881882,3.85595733 -0.0163651765,3.07771733 -0.000779294118,2.01275733 C0.0174042353,0.947797333 0.843456,0.228437333 1.88771012,0.213077333 L1.88771012,0.213077333 Z" id="Fill-83" fill="#FFFFFF" mask="url(#mask-7)"></path>
                </g>
                <path d="M15.1848459,205.971039 C18.4480599,206.21514 21.5246564,204.781696 21.7708878,201.481138 C22.0093435,198.248098 19.1815703,196.279709 15.8872534,196.033011 C13.0620721,195.822668 9.46968557,196.876977 9.19753508,200.54888 C8.92797649,204.187024 12.2948669,205.755503 15.1848459,205.971039 M16.0738709,193.033684 C22.0922846,193.47774 24.2539371,198.076708 23.9766028,201.84729 C23.6577979,206.126849 20.2079664,209.359889 14.9645336,208.967769 C9.51633994,208.565262 6.69893436,204.628484 7.02551495,200.216487 C7.35987127,195.669456 10.8641329,192.644161 16.0738709,193.033684" id="Fill-86" fill="#FFFFFF"></path>
                <path d="M12.4822435,187.931136 C10.7659245,187.638651 9.34949267,187.466917 8,187.308599 L8.45518602,184.625248 L11.1916573,184.949933 L11.2050451,184.847966 C9.80200113,183.758526 8.5863867,181.568911 9.05228298,178.818476 C9.43785231,176.548362 11.4192503,173.204906 17.0822999,174.170913 L27,175.861424 L26.4912627,178.85336 L16.9510992,177.227249 C14.238726,176.765713 11.839628,177.3802 11.3523112,180.235286 C11.014938,182.231699 12.1662909,183.983927 13.7540868,184.821133 C14.1075254,185.022384 14.6055524,185.212902 15.1169673,185.304136 L25.1069617,187.00538 L24.5982244,190 L12.4822435,187.931136 Z" id="Fill-88" fill="#FFFFFF"></path>
                <path d="M47.6612863,116.235558 C48.0675289,115.76033 48.5022344,115.100885 49.0740792,114.15844 C50.6705869,111.507311 51.2217314,108.429012 48.4530713,106.650913 C45.7982627,104.9449 43.293531,106.605526 41.6038721,109.403495 L40.3256309,111.52333 L47.6612863,116.235558 Z M38.4703699,110.332591 L39.8728127,108.004511 C41.4874331,105.326684 41.0682528,102.806376 39.2129918,101.615638 C36.9566633,100.165927 35.0056635,101.367345 33.4427938,103.957067 C32.7312222,105.137127 32.4077807,105.868657 32.2447661,106.335875 L38.4703699,110.332591 Z M29,107.846991 C29.4657559,106.55213 30.3739799,104.64588 31.4400434,102.878461 C32.987388,100.315437 34.410531,98.9404806 36.11054,98.3557906 C37.489695,97.7711005 39.0059892,97.8859027 40.5171083,98.8577162 C42.3749569,100.051125 43.2495429,102.408573 42.7190987,104.928881 L42.7760244,104.966258 C44.3699446,103.375047 47.1851803,102.117563 50.0987422,103.989105 C51.7263003,105.033004 52.5905362,106.488054 52.8932776,108.15402 C53.3046953,110.295214 52.5258479,112.900956 50.5696731,116.142114 C49.4854969,117.938901 48.5746854,119.191045 47.9252146,120 L29,107.846991 Z" id="Fill-90" fill="#FFFFFF"></path>
                <path d="M49.1731669,98.4827092 C47.6183047,97.3684462 46.2688508,96.4811155 45,95.6549801 L46.5366615,93.594741 L49.1887676,95.3719522 L49.2485699,95.2929084 C47.9329173,93.403506 47.8939158,91.1545817 49.050962,89.6043028 C49.2485699,89.3365737 49.3889756,89.1478884 49.5839834,89 L51.8486739,90.6242231 C51.6354654,90.8001594 51.4274571,91.021992 51.1882475,91.3432669 C49.9297972,93.0286853 50.3562142,95.0991235 51.9188768,96.7131474 C52.1840874,97.0267729 52.5767031,97.3480478 52.9303172,97.6030279 L60,102.672032 L58.2631305,105 L49.1731669,98.4827092 Z" id="Fill-92" fill="#FFFFFF"></path>
                <path d="M63.7683715,84.4427061 C61.6356662,86.9245074 59.733109,90.1988839 62.1240915,92.2990749 C63.6021534,93.5960162 65.0981157,93.1423536 66.0417227,91.9735053 C67.4123822,90.2736048 67.230821,88.3442045 66.5071332,87.0285829 C66.2948856,86.7537168 66.1107672,86.5001994 65.8806191,86.2973856 L63.7683715,84.4427061 Z M68.8981157,85.0911768 C69.9670256,86.0305252 71.0512786,86.8924841 72,87.5009257 L70.3071332,89.5957795 L68.5835801,88.4456114 L68.5401077,88.4989835 C68.9032301,90.0414363 68.6807537,92.2056738 67.2026918,94.0363358 C65.1236878,96.6115382 62.2493943,96.4007185 60.4951548,94.8582657 C57.5211306,92.2430342 58.1195155,88.0533267 62.1752355,83.1324218 L61.8965007,82.8869102 C60.8761777,81.9929281 58.789502,80.701324 56.6874832,83.3032124 C55.7234186,84.4987468 55.053432,86.0838973 54.9051144,87.4528909 L53,86.6870017 C53.1969044,85.0431419 54.0535666,83.1190788 55.3398385,81.5259225 C58.50821,77.5977381 61.8504711,78.9000166 64.3181696,81.0669226 L68.8981157,85.0911768 Z" id="Fill-94" fill="#FFFFFF"></path>
                <path d="M66.2757451,75.6449271 C65.0550036,74.4608851 64.0021808,73.538822 63,72.6604221 L64.9137388,70.8265697 L66.9447541,72.6013484 L67.0167192,72.5294327 C66.5076327,70.8984854 66.7821662,68.5149909 68.7518779,66.6297701 C70.3697601,65.0758755 73.9040465,63.5733493 77.9367579,67.4799173 L85,74.319622 L82.8650351,76.3692218 L76.0683305,69.7889277 C74.1359341,67.9191173 71.835716,67.0638332 69.7967046,69.0184014 C68.3707293,70.3848013 68.2934335,72.3907379 69.1010419,73.929222 C69.2689605,74.2836641 69.5621517,74.7074535 69.927308,75.0618956 L77.0411921,81.9529686 L74.9035619,84 L66.2757451,75.6449271 Z" id="Fill-96" fill="#FFFFFF"></path>
                <path d="M90.6293827,57.1327837 C90.3971491,56.839476 90.0577308,56.4642536 89.7744569,56.215867 C88.2381424,55.0320668 86.0612715,54.8814493 84.3667319,56.318921 C82.0316359,58.298087 82.2817336,61.5958162 84.530061,64.4390507 C86.5895391,67.0418257 89.5728475,68.1542808 92.0125762,66.0879152 C93.5259225,64.801061 94.0439821,62.584078 93.0946316,60.4622218 C92.9159904,60.0764298 92.6914128,59.7355587 92.3953788,59.3656211 L90.6293827,57.1327837 Z M83.9686171,44 L96.2897575,59.5690868 C97.1702035,60.6868267 98.2318427,61.9181904 99,62.776974 L96.9966663,64.4760444 L95.1285895,62.3304065 L95.052029,62.3964668 C95.5420163,64.4231962 94.8682837,66.7696573 92.867502,68.4687277 C89.8382573,71.0397938 85.4487873,70.3686214 82.3787103,66.4895618 C78.9436948,62.2062132 79.4515462,57.4234489 82.4782389,54.8550252 C84.3769399,53.2431544 86.3751696,53.0581856 87.7609151,53.6157344 L87.8119554,53.5708134 L81.7356019,45.8946088 L83.9686171,44 Z" id="Fill-98" fill="#FFFFFF"></path>
                <path d="M102.636565,60 L93.2931702,46.5695844 L95.6566051,44.8471303 L105,58.2775459 L102.636565,60 Z M93.3342288,40.8009386 C93.9141813,41.6359087 93.7807409,42.7386994 92.8543565,43.4108766 C91.9869939,44.0436684 90.9246029,43.8126075 90.3728781,42.9592576 C89.7621316,42.145293 89.9058367,40.9952398 90.7731994,40.362448 C91.6456944,39.7270305 92.7080853,39.9607171 93.3342288,40.8009386 L93.3342288,40.8009386 Z" id="Fill-100" fill="#FFFFFF"></path>
                <path d="M102.474192,45.0139955 C101.566011,43.5994605 100.764363,42.4734498 100,41.4061652 L102.301078,40.0503564 L103.85111,42.2155652 L103.938998,42.164499 C103.832467,40.4742062 104.668738,38.2272914 107.028408,36.8382895 C108.975269,35.6918522 112.77045,35.0152245 115.761319,39.6826794 L121,47.8558321 L118.42993,49.3699463 L113.393659,41.5057444 C111.960812,39.2690428 109.926062,37.9362138 107.478503,39.3788352 C105.766011,40.3873936 105.212048,42.3100378 105.630184,43.9747974 C105.710082,44.3552409 105.893849,44.8327103 106.165504,45.2565602 L111.438808,53.4858858 L108.871401,55 L102.474192,45.0139955 Z" id="Fill-102" fill="#FFFFFF"></path>
                <path d="M130.363756,32.1364155 C130.140363,31.6801229 129.914342,31.2994446 129.612105,30.9943804 C128.35585,29.6802579 126.405763,29.0414483 124.413626,30.0087885 C121.869577,31.2420821 121.060107,34.3109754 122.742123,37.7214362 C124.163951,40.6104199 126.868317,42.3182577 129.782935,40.9050545 C131.438669,40.1019797 132.416341,38.3054907 132.16141,36.3186626 C132.087822,35.7867558 131.893339,35.2418122 131.669946,34.7855196 L130.363756,32.1364155 Z M136.37959,37.6275703 C138.058977,41.0380312 138.387496,43.4055377 137.575398,45.3819363 C136.779069,47.3896235 134.915711,48.8601892 133.047096,49.7675595 C131.267839,50.6306043 129.096988,51.1546889 127.478048,50.9591349 L127.146901,48.5942358 C128.458348,48.7089608 130.279655,48.5446955 132.11936,47.6529695 C134.881545,46.3127731 136.185107,43.8696524 134.358543,40.1567348 L133.546445,38.5140816 L133.483369,38.5427628 C133.330937,40.3157853 132.245511,42.198318 129.97479,43.2986349 C126.261215,45.1003386 122.124508,43.2621315 120.116601,39.1815724 C117.654025,34.1910356 119.559434,29.8001976 122.962887,28.1471149 C125.541102,26.898177 127.596315,27.5213423 128.839429,28.4261052 L128.899877,28.3948166 L127.945858,26.1446424 L130.308565,25 C130.75535,26.0638135 131.28098,27.2814627 132.166666,29.0779517 L136.37959,37.6275703 Z" id="Fill-104" fill="#FFFFFF"></path>
                <path d="M180,17 C180,19.2106667 178.208,21 176,21 C173.792,21 172,19.2106667 172,17 C172,14.7893333 173.792,13 176,13 C178.208,13 180,14.7893333 180,17" id="Fill-106" fill="#FFFFFF"></path>
                <path d="M377,88 C377,90.2106667 375.208,92 373,92 C370.792,92 369,90.2106667 369,88 C369,85.7893333 370.792,84 373,84 C375.208,84 377,85.7893333 377,88" id="Fill-108" fill="#FFFFFF"></path>
                <path d="M411,281 C411,283.208 409.208,285 407,285 C404.792,285 403,283.208 403,281 C403,278.792 404.792,277 407,277 C409.208,277 411,278.792 411,281" id="Fill-110" fill="#FFFFFF"></path>
                <path d="M206,417 C206,419.208 204.208,421 202,421 C199.792,421 198,419.208 198,417 C198,414.792 199.792,413 202,413 C204.208,413 206,414.792 206,417" id="Fill-112" fill="#FFFFFF"></path>
                <path d="M44,321 C44,323.208 42.208,325 40,325 C37.792,325 36,323.208 36,321 C36,318.792 37.792,317 40,317 C42.208,317 44,318.792 44,321" id="Fill-114" fill="#FFFFFF"></path>
                <path d="M28,143 C28,145.210667 26.208,147 24,147 C21.792,147 20,145.210667 20,143 C20,140.789333 21.792,139 24,139 C26.208,139 28,140.789333 28,143" id="Fill-116" fill="#FFFFFF"></path>
            </g>
        </g>
    </g>
</svg>