<?xml version="1.0" encoding="UTF-8"?>
<svg width="391px" height="390px" viewBox="0 0 391 390" version="1.1" xmlns="http://www.w3.org/2000/svg" xmlns:xlink="http://www.w3.org/1999/xlink">
    <title>Group 118 Copy 2</title>
    <defs>
        <polygon id="path-1" points="0.0693016659 0.277688889 16.5473104 0.277688889 16.5473104 21.5657894 0.0693016659 21.5657894"></polygon>
        <polygon id="path-3" points="0.0464972308 0.53100476 20.5071138 0.53100476 20.5071138 4.60328 0.0464972308 4.60328"></polygon>
        <polygon id="path-5" points="0 0.1917696 20.4368898 0.1917696 20.4368898 3.4611456 0 3.4611456"></polygon>
    </defs>
    <g id="Homepage-👋" stroke="none" stroke-width="1" fill="none" fill-rule="evenodd" opacity="0.3">
        <g id="Group-118-Copy-2" transform="translate(0.000000, 0.237895)">
            <g id="Group-3" transform="translate(198.000000, 0.762105)">
                <mask id="mask-2" fill="white">
                    <use xlink:href="#path-1"></use>
                </mask>
                <g id="Clip-2"></g>
                <path d="M3.5802544,0.422478222 L2.8899184,12.6415716 C2.6328784,17.1823716 4.6231024,19.2427449 7.5141904,19.3905849 C10.6623184,19.5548516 12.8410384,17.6493582 13.0956304,13.1719182 L13.7835184,0.952824889 L16.5473104,1.09597156 L15.8716624,13.1015182 C15.5142544,19.4070116 11.9377264,21.7888782 7.2963184,21.5495182 C2.9119504,21.3218916 -0.2606576,18.7734116 0.0967504,12.4045582 L0.7797424,0.276984889 L3.5802544,0.422478222 Z" id="Fill-1" fill="#FFFFFF" mask="url(#mask-2)"></path>
            </g>
            <path d="M227.783672,24.2692143 L225.893397,19.3189773 C225.077518,17.4090247 224.619773,16.1815365 224.171514,14.892437 L224.109849,14.885328 C223.336662,16.0085508 222.55636,16.9730057 221.23293,18.6009678 L218.045313,22.7076029 L215,22.2194512 L222.93821,12.856892 L218.538634,1.76210526 L221.581575,2.25025692 L223.550119,7.49433275 C224.093247,8.95404839 224.505929,10.0820105 224.90201,11.30002 L224.966047,11.3094986 C225.743977,10.1554702 226.408064,9.32608631 227.382849,8.1104465 L230.954687,3.75499626 L234,4.24314792 L226.15666,13.2147119 L230.859818,24.7621053 L227.783672,24.2692143 Z" id="Fill-4" fill="#FFFFFF"></path>
            <path d="M243.187745,26.0462569 C243.793699,26.3653727 244.720314,26.6868523 245.715305,26.9988766 C251.154748,28.7031912 255.059264,26.5781166 256.721513,21.2406098 C258.204568,16.5886111 256.497522,12.8017706 251.112308,11.1163666 C249.796656,10.702698 248.756867,10.5395944 248.049527,10.4450415 L243.187745,26.0462569 Z M246.059544,7.76210526 C247.710004,8.02212552 249.61039,8.42397501 251.628666,9.0574789 C255.283255,10.201568 257.619834,11.8656977 258.84589,14.021502 C260.097881,16.1843978 260.399679,18.8200576 259.411762,21.9875771 C258.407339,25.2118283 256.596549,27.5118257 254.179805,28.7811973 C251.732409,30.0411136 248.41027,30.0954815 244.578846,28.8970245 C242.763341,28.3273437 241.273212,27.7647545 240,27.204529 L246.059544,7.76210526 Z" id="Fill-6" fill="#FFFFFF"></path>
            <path d="M271.124703,29.4965063 C271.819456,27.9596346 272.19173,25.2206087 269.391376,24.0278831 C266.866077,22.9553729 264.781817,24.7656758 263.842833,26.3991913 L271.124703,29.4965063 Z M263.050861,28.1623508 C261.666097,31.5378114 263.195503,33.8195473 265.71843,34.8944146 C267.503923,35.6510646 268.741674,35.8113519 269.815815,35.8042804 L269.479109,37.7583703 C268.459505,37.7913706 266.723807,37.6192976 264.542328,36.6929316 C260.319271,34.8967718 258.998528,31.0357352 260.757938,26.9531251 C262.538688,22.813943 266.356275,20.6382795 270.380154,22.3495815 C274.828474,24.2423851 274.344754,28.6337839 273.265871,31.1394505 C273.050094,31.646241 272.822462,32.0163159 272.65648,32.2473181 L263.050861,28.1623508 Z" id="Fill-8" fill="#FFFFFF"></path>
            <path d="M273.609421,37.4151958 C274.092738,38.2618657 275.128067,39.4260367 276.371933,40.0634445 C278.180079,40.9870843 279.5,40.5348856 280.091266,39.4260367 C280.711973,38.2618657 280.329244,37.2901196 278.844946,35.6857765 C276.857704,33.5426434 276.408734,31.6183937 277.262512,30.0116453 C278.39843,27.8781334 281.124141,27.0146264 284.063297,28.5179465 C285.447007,29.2275135 286.472522,30.2088808 287,31.0435241 L285.432287,32.4987379 C285.059372,31.9190577 284.335623,30.9136373 283.032875,30.2497712 C281.592738,29.5113403 280.314524,29.9515125 279.784593,30.949717 C279.193327,32.0561605 279.720805,32.9605579 281.158489,34.5793329 C283.050049,36.63828 283.687929,38.4109951 282.610893,40.4338625 C281.357213,42.788663 278.592247,43.5246885 275.341511,41.8626179 C273.844946,41.0953233 272.664868,39.998501 272,38.9545956 L273.609421,37.4151958 Z" id="Fill-10" fill="#FFFFFF"></path>
            <path d="M295.753599,30.355545 C295.267678,31.1573244 294.278743,31.451709 293.350853,30.9108071 C292.474241,30.4034124 292.261804,29.4101633 292.777026,28.6251375 C293.236088,27.8066045 294.271417,27.5026464 295.143145,28.0100411 C296.014873,28.5174358 296.227311,29.5106849 295.753599,30.355545 L295.753599,30.355545 Z M283,45.3787366 L290.828458,32.4497449 L293.206786,33.8331135 L285.375886,46.7621053 L283,45.3787366 Z" id="Fill-12" fill="#FFFFFF"></path>
            <path d="M302.322658,47.3259197 C302.587775,46.9527799 302.793182,46.6099577 302.900662,46.2414821 C303.392683,44.6952841 303.036804,42.9065452 301.376832,41.7871257 C299.253501,40.3575339 296.444686,41.0781601 294.46705,43.8720444 C292.792748,46.2414821 292.632722,49.0796768 295.059386,50.7168276 C296.439909,51.647345 298.307676,51.6170274 299.781348,50.5489147 C300.175442,50.2597314 300.524156,49.8702667 300.786885,49.4971269 L302.322658,47.3259197 Z M300.612528,54.3875904 C298.637282,57.1814747 296.893714,58.4734713 294.951905,58.7113479 C292.993377,58.9748779 290.991858,58.1772915 289.434589,57.1278359 C287.948974,56.1273548 286.561285,54.6767738 286,53.3404669 L287.743567,52.0461382 C288.235588,53.1142509 289.176637,54.4505578 290.710021,55.4836886 C293.007708,57.0345509 295.539464,56.9715836 297.693844,53.9304942 L298.646835,52.5825266 L298.594289,52.5475448 C297.111063,53.2052037 295.119097,53.1912109 293.229834,51.9155392 C290.139181,49.8329527 289.766583,45.824032 292.128759,42.4797665 C295.023559,38.3892214 299.380089,37.9367894 302.215178,39.8491309 C304.362393,41.2973798 304.777983,43.1607466 304.608403,44.5203748 L304.660949,44.5553567 L306.034307,42.8272529 L308,44.1542314 C307.347954,44.9681426 306.609923,45.9056563 305.568559,47.3772264 L300.612528,54.3875904 Z" id="Fill-14" fill="#FFFFFF"></path>
            <path d="M309.861774,49.9734137 C310.833043,48.7700792 311.58304,47.743137 312.29577,46.7621053 L314.105546,48.3375553 L312.663781,50.3189495 L312.731328,50.3793579 C314.166104,49.780107 316.339232,49.8260173 318.195591,51.4401287 C319.728194,52.771529 321.360951,55.8306083 318.155995,59.8030621 L312.535676,66.7621053 L310.516274,65.0078465 L315.922309,58.3146001 C317.459569,56.4129449 318.051182,54.2624073 316.122618,52.5878876 C314.77635,51.4183817 312.959587,51.5174514 311.636611,52.3752501 C311.32683,52.5588915 310.968136,52.8609333 310.676988,53.2209672 L305.017073,60.228337 L303,58.4740782 L309.861774,49.9734137 Z" id="Fill-16" fill="#FFFFFF"></path>
            <path d="M366.297119,102.213478 L355.485018,108.007413 C351.467292,110.159308 350.667954,112.922235 351.937079,115.458139 C353.320728,118.216235 356.010899,119.073612 359.974868,116.950699 L370.784632,111.156764 L372,113.58157 L361.379553,119.271654 C355.798209,122.26402 352.023557,120.467151 349.983141,116.400046 C348.050238,112.555133 348.70233,108.5315 354.33743,105.512568 L365.067728,99.7621053 L366.297119,102.213478 Z" id="Fill-18" fill="#FFFFFF"></path>
            <polygon id="Fill-20" fill="#FFFFFF" points="376 121.348751 357.052755 129.762105 356 127.175459 374.949595 118.762105"></polygon>
            <path d="M363.697892,141.685341 C363.770053,142.381545 364.014469,143.349967 364.305441,144.371388 C365.89764,149.960292 369.780369,152.070586 375.062092,150.458958 C379.682727,149.078595 381.84523,145.481942 380.269326,139.955671 C379.882915,138.604217 379.447621,137.626158 379.135699,136.973316 L363.697892,141.685341 Z M380.236737,133.762105 C380.932742,135.311099 381.647369,137.151583 382.238624,139.225741 C383.307073,142.97898 383.230256,145.908337 382.13853,148.16558 C381.053786,150.456549 379.06121,152.207899 375.928025,153.164276 C372.736644,154.139926 369.861842,153.906252 367.494494,152.574069 C365.117835,151.20816 363.250959,148.416117 362.128971,144.482202 C361.598238,142.620037 361.237433,141.032499 361,139.635273 L380.236737,133.762105 Z" id="Fill-22" fill="#FFFFFF"></path>
            <path d="M377.138328,166.383742 C378.858107,166.090721 381.435331,164.822603 380.853929,161.710175 C380.333598,158.910468 377.578044,158.161909 375.633523,158.302264 L377.138328,166.383742 Z M373.662129,158.639607 C369.961186,159.405403 368.871667,162.052444 369.391998,164.852152 C369.758428,166.834355 370.332502,167.994128 370.957875,168.917514 L369.076868,169.762105 C368.466151,168.900278 367.620919,167.304666 367.168989,164.884162 C366.296886,160.195821 368.864339,156.812533 373.390971,155.958093 C377.976232,155.091341 382.036276,157.122791 382.866851,161.589519 C383.787812,166.526559 379.727767,168.661429 376.950228,169.185912 C376.385925,169.291794 375.938881,169.311493 375.64818,169.304106 L373.662129,158.639607 Z" id="Fill-24" fill="#FFFFFF"></path>
            <path d="M371.818996,172.901293 C371.375218,173.747036 370.97003,175.20765 371.119564,176.548117 C371.336629,178.496388 372.436426,179.304438 373.680932,179.172511 C374.990558,179.035873 375.593517,178.199554 376.121708,176.140559 C376.823552,173.386594 378.181415,171.977808 379.990291,171.786985 C382.390066,171.532556 384.596894,173.240532 384.949022,176.404411 C385.115439,177.898007 384.85496,179.250254 384.449772,180.124266 L382.378007,179.667235 C382.657779,179.052364 383.101557,177.928633 382.942376,176.526915 C382.773547,174.974423 381.709929,174.194643 380.586014,174.312435 C379.339095,174.444361 378.873611,175.356067 378.309242,177.386792 C377.624281,180.018254 376.493131,181.490648 374.218771,181.733298 C371.570577,182.015998 369.448163,180.209076 369.055034,176.705958 C368.876558,175.092214 369.146684,173.553858 369.655581,172.453685 L371.818996,172.901293 Z" id="Fill-26" fill="#FFFFFF"></path>
            <g id="Group-30" transform="translate(370.000000, 183.762105)">
                <mask id="mask-4" fill="white">
                    <use xlink:href="#path-3"></use>
                </mask>
                <g id="Clip-29"></g>
                <path d="M18.9325403,3.93368 C18.0276665,3.98408 17.2670142,3.34088 17.2111865,2.28248 C17.1600111,1.28408 17.8462265,0.55688 18.7557526,0.53768 C19.6583003,0.45608 20.4538449,1.13048 20.5050203,2.12888 C20.5585218,3.12488 19.8676542,3.85208 18.9325403,3.93368 L18.9325403,3.93368 Z M0.0464972308,1.89368 L14.633808,1.08248 L14.7757034,3.78968 L0.186066462,4.60328 L0.0464972308,1.89368 Z" id="Fill-28" fill="#FFFFFF" mask="url(#mask-4)"></path>
            </g>
            <path d="M379.633052,202.872163 C380.102567,202.879246 380.509481,202.855636 380.887501,202.737582 C382.491077,202.272453 383.82739,200.973868 383.861099,198.98113 C383.902031,196.431181 381.713367,194.523441 378.207651,194.466776 C375.234052,194.419555 372.705892,195.883414 372.655329,198.796967 C372.628843,200.456795 373.697894,201.97732 375.443529,202.588835 C375.908229,202.749388 376.440346,202.82022 376.909862,202.827303 L379.633052,202.872163 Z M372.607173,205.429195 C369.101457,205.374891 367.016327,204.664211 365.725761,203.200351 C364.403894,201.736491 363.968087,199.642228 364.001796,197.769904 C364.03069,195.987301 364.500205,194.03234 365.33811,192.816392 L367.420832,193.524711 C366.777957,194.528164 366.156752,196.053411 366.127859,197.895041 C366.079703,200.659846 367.548444,202.70925 371.367171,202.768276 L373.059834,202.796609 L373.059834,202.735221 C371.663327,201.882877 370.565383,200.239577 370.603907,197.968234 C370.664101,194.25428 373.900147,191.697248 378.094485,191.763358 C383.230263,191.845995 386.05458,195.175095 385.999201,198.584471 C385.953453,201.160392 384.585839,202.551058 383.321758,203.17674 L383.319351,203.238128 L385.573025,203.39868 L385.532093,205.762105 C384.470266,205.681829 383.249525,205.601553 381.402764,205.57322 L372.607173,205.429195 Z" id="Fill-31" fill="#FFFFFF"></path>
            <path d="M381.040511,209.946031 C382.55761,210.112024 383.806987,210.187698 385,210.253607 L384.746367,212.71666 L382.336856,212.577518 L382.325114,212.670279 C383.614414,213.578362 384.800382,215.497053 384.539704,218.021133 C384.328343,220.103377 382.778365,223.249933 377.769118,222.698248 L369,221.726697 L369.279466,218.98292 L377.7198,219.915413 C380.115221,220.17905 382.181858,219.483342 382.449582,216.86406 C382.637458,215.035689 381.536034,213.510012 380.10113,212.841155 C379.779392,212.677602 379.330838,212.533578 378.875239,212.482316 L370.045061,211.508324 L370.326875,208.762105 L381.040511,209.946031 Z" id="Fill-33" fill="#FFFFFF"></path>
            <path d="M349.600355,283.16845 C349.140696,283.687376 348.5944,284.518134 348.045698,285.420304 C345.039867,290.354862 346.197437,294.694322 351.075594,297.600784 C355.320819,300.16923 359.481813,299.395602 362.456358,294.518173 C363.185555,293.325595 363.597082,292.342492 363.861807,291.66884 L349.600355,283.16845 Z M367,290.359623 C366.343001,291.918782 365.486255,293.685035 364.369597,295.515558 C362.350468,298.829068 360.133999,300.726242 357.708156,301.411796 C355.265467,302.123534 352.579713,301.787899 349.684585,300.062112 C346.738919,298.303001 344.900285,295.979735 344.228846,293.304171 C343.574253,290.600043 344.327516,287.32462 346.442909,283.851624 C347.44405,282.209151 348.365774,280.87613 349.227333,279.762105 L367,290.359623 Z" id="Fill-35" fill="#FFFFFF"></path>
            <path d="M340.567106,309.262756 C341.882718,310.329571 344.432301,311.372086 346.235437,308.869079 C347.851961,306.616372 346.594665,304.096354 345.24173,302.762227 L340.567106,309.262756 Z M343.727842,301.544744 C340.805036,299.34064 338.25312,300.307821 336.631931,302.558098 C335.486601,304.149816 335.045731,305.347858 334.803136,306.421964 L333,305.605449 C333.207606,304.582375 333.776771,302.895882 335.176359,300.946939 C337.889227,297.180277 341.908378,296.806041 345.428341,299.552059 C348.994958,302.336958 350.198604,306.674695 347.616364,310.263959 C344.763537,314.234749 340.648748,312.681912 338.486385,310.99542 C338.05018,310.652775 337.746936,310.336862 337.564989,310.118152 L343.727842,301.544744 Z" id="Fill-37" fill="#FFFFFF"></path>
            <path d="M340.030532,319.481157 L331.653018,316.161286 C330.277786,315.636849 329.065059,315.124119 327.886289,314.522421 L327.825653,314.590317 C328.538736,315.648555 329.210586,316.798102 329.933371,318.029591 L334.333143,325.671382 L332.404908,327.762105 L325,313.674894 L326.758453,311.762105 L342,317.341268 L340.030532,319.481157 Z" id="Fill-39" fill="#FFFFFF"></path>
            <path d="M318.977945,331.886432 C320.123189,333.131848 322.503593,334.562297 324.706532,332.455765 C326.687048,330.560361 325.832847,327.924824 324.694701,326.416092 L318.977945,331.886432 Z M323.376724,324.990388 C320.807023,322.378573 318.100082,322.883856 316.121933,324.776888 C314.718772,326.117192 314.084628,327.191808 313.672908,328.185768 L312,327.099292 C312.369128,326.150403 313.209132,324.620321 314.922266,322.983489 C318.237322,319.811831 322.316663,320.124964 325.397465,323.3583 C328.516126,326.636709 329.02486,331.008711 325.865974,334.030919 C322.375818,337.373378 318.511802,335.190935 316.621203,333.205387 C316.237877,332.804481 315.984693,332.448648 315.840354,332.206682 L323.376724,324.990388 Z" id="Fill-41" fill="#FFFFFF"></path>
            <polygon id="Fill-43" fill="#FFFFFF" points="323 345.986723 320.965603 347.762105 307 330.535048 309.036748 328.762105"></polygon>
            <path d="M307.094968,340.953475 C305.348844,338.481553 302.55739,337.156876 300.150317,338.987118 C297.792464,340.783333 298.099501,343.996588 299.866719,346.492816 C301.380807,348.634176 304.214449,350.554351 306.891058,348.517507 C309.544228,346.497677 308.646557,343.145878 307.094968,340.953475 M297.696369,348.184514 C294.471314,343.622275 296.355721,339.286082 299.107331,337.193335 C302.229259,334.821068 306.471519,335.31691 309.284068,339.288513 C312.20443,343.418105 311.1591,347.817494 307.941076,350.26754 C304.622269,352.790504 300.492511,352.134242 297.696369,348.184514" id="Fill-45" fill="#FFFFFF"></path>
            <path d="M291.237699,349.514708 C291.035805,349.170775 290.824628,348.873956 290.578642,348.628963 C289.207152,347.248521 287.204453,346.998817 285.570733,347.983501 C283.161925,349.436969 282.929862,352.282659 284.640163,355.201375 C286.134645,357.754957 288.719821,359.114197 291.12863,357.660729 C292.685769,356.723159 293.491026,354.742013 292.915511,352.739665 C292.822686,352.402799 292.699693,352.014108 292.516363,351.698444 L291.237699,349.514708 Z M295.479801,351.547679 C296.433578,353.180181 297.2574,354.46404 298,355.615978 L295.950888,356.850367 L294.586361,354.758502 L294.532986,354.786771 C294.537628,356.888058 293.556003,358.690171 291.509212,359.924559 C288.478476,361.752585 284.686575,360.551176 282.421645,356.683112 C279.741324,352.105981 281.163867,348.186091 284.092495,346.419314 C285.802796,345.38516 287.661616,345.262664 289.153778,346.073025 L289.202511,346.040046 L285.1507,339.121346 L287.408668,337.762105 L295.479801,351.547679 Z" id="Fill-47" fill="#FFFFFF"></path>
            <path d="M280.24435,361.736635 C280.877732,363.151041 281.450908,364.282565 282,365.359415 L279.825306,366.307898 L278.707855,364.19461 L278.652464,364.220759 C278.4598,365.85624 277.703594,367.605823 275.384402,368.616113 C273.496295,369.438608 271.560022,368.932274 270.252316,367.612955 L270.192108,367.636726 C270.105409,368.587587 269.826047,369.417213 269.443127,370.092324 C268.862727,371.088351 268.113746,371.787234 266.798814,372.360127 C264.96369,373.158851 261.729344,373.182622 259.602816,368.435449 L256,360.386413 L258.434791,359.323826 L261.883475,367.037684 C263.073175,369.69534 264.783068,370.83875 266.815672,369.95445 C268.248611,369.329259 268.896443,367.798373 268.792886,366.424379 C268.74472,366.006 268.655613,365.504421 268.453316,365.052762 L264.674694,356.604364 L267.109485,355.544154 L270.772508,363.738197 C271.74787,365.913291 273.457762,367.059078 275.345869,366.236584 C276.920897,365.549587 277.508522,363.807134 277.38329,362.376089 C277.332716,361.960087 277.188218,361.48228 277.010004,361.087673 L273.318081,352.836578 L275.781771,351.762105 L280.24435,361.736635 Z" id="Fill-49" fill="#FFFFFF"></path>
            <path d="M246.08324,373.277165 C246.547085,374.957507 248.029983,377.374069 250.911444,376.444622 C253.500073,375.605674 253.905352,372.778199 253.558639,370.860603 L246.08324,373.277165 Z M253.01983,368.938116 C251.890672,365.340179 249.266903,364.557487 246.678274,365.393989 C244.843978,365.988345 243.808526,366.687876 243.004997,367.414312 L242,365.641026 C242.747306,364.934157 244.166952,363.90932 246.406526,363.18533 C250.74043,361.783822 254.223952,363.953346 255.526466,368.358435 C256.854749,372.824671 255.376537,377.09768 251.2441,378.430703 C246.678274,379.91048 244.211462,376.111978 243.410276,373.409244 C243.24629,372.86136 243.180696,372.416204 243.15727,372.12514 L253.01983,368.938116 Z" id="Fill-51" fill="#FFFFFF"></path>
            <path d="M240.029492,376.701119 C240.355427,378.24992 240.686227,379.506494 241,380.704623 L238.584676,381.213584 L237.949833,378.790539 L237.852539,378.81002 C237.404986,380.363692 235.965035,382.124357 233.488902,382.645494 C231.445728,383.076528 227.967467,382.518862 226.889936,377.404898 L225,368.448154 L227.692612,367.880748 L229.509577,376.494125 C230.025236,378.943958 231.348434,380.767938 233.914564,380.224884 C235.712071,379.844989 236.806628,378.286448 236.981757,376.664591 C237.032837,376.296872 237.027972,375.814698 236.930678,375.347136 L235.02858,366.329512 L237.721192,365.762105 L240.029492,376.701119 Z" id="Fill-53" fill="#FFFFFF"></path>
            <path d="M221.482627,388.762105 L220.8859,384.538921 L216.883883,385.047202 L216.60278,383.056239 L220.607263,382.547957 L219.49518,374.673112 C219.241202,372.864849 218.555705,371.909186 216.999776,372.10594 C216.269895,372.199633 215.776732,372.354225 215.404394,372.492421 L215,370.517854 C215.505492,370.208669 216.338937,369.948673 217.45102,369.805792 C218.72338,369.646515 219.860121,369.929935 220.624524,370.538935 C221.47523,371.290817 221.970859,372.515845 222.214974,374.237442 L223.33692,382.198953 L225.718897,381.896795 L226,383.887759 L223.615557,384.192259 L224.113652,387.72212 L221.482627,388.762105 Z" id="Fill-55" fill="#FFFFFF"></path>
            <path d="M149.337117,376.072117 L146.634157,375.355119 C143.807564,374.605424 141.591864,375.623702 140.947032,377.875123 C140.210082,380.451179 141.812464,382.041654 144.600271,382.812369 C145.906903,383.155688 146.820819,383.272463 147.276565,383.270161 L149.337117,376.072117 Z M149.441357,385.762105 C147.99897,385.661679 146.045081,385.302012 144.224523,384.818563 C141.39793,384.071204 139.717973,383.090294 138.760422,381.639948 C138.008927,380.497889 137.785902,378.989156 138.21983,377.468746 C138.964054,374.862329 141.16036,373.589481 143.516662,373.458693 L143.531207,373.39797 C142.113063,372.424067 141.582167,370.742507 141.671862,368.593848 C141.797919,365.637105 141.846403,363.635582 141.637923,362.762105 L144.369974,363.48611 C144.544514,364.133044 144.517848,365.950062 144.394215,368.558815 C144.231795,371.412796 145.024502,372.755708 147.395349,373.482048 L149.887406,374.140659 L152.328554,365.597402 L155,366.305058 L149.441357,385.762105 Z" id="Fill-57" fill="#FFFFFF"></path>
            <path d="M126.824981,367.148859 C126.194227,368.721965 125.940969,371.489685 128.819981,372.561289 C131.409896,373.524078 133.431177,371.61506 134.300854,369.933138 L126.824981,367.148859 Z M135.020009,368.128206 C136.262404,364.679201 134.61862,362.455562 132.028705,361.490409 C130.193783,360.809124 128.939442,360.702673 127.857125,360.761812 L128.107993,358.784193 C129.135358,358.70613 130.889046,358.800752 133.130136,359.633434 C137.464183,361.24912 138.971781,365.062424 137.385338,369.240025 C135.779782,373.474401 132.031094,375.82578 127.897742,374.290523 C123.329551,372.589676 123.618647,368.158958 124.59106,365.594678 C124.789365,365.076617 124.999616,364.69576 125.157305,364.456837 L135.020009,368.128206 Z" id="Fill-59" fill="#FFFFFF"></path>
            <path d="M124.524711,358.858954 C124.02513,358.037626 122.98844,356.925013 121.771151,356.347218 C120.002681,355.506789 118.761937,356.012957 118.243592,357.13512 C117.704138,358.316973 118.109901,359.264842 119.594572,360.795282 C121.583515,362.839052 122.097169,364.727628 121.34897,366.360734 C120.352153,368.52627 117.786229,369.498016 114.913051,368.129932 C113.55738,367.485285 112.539454,366.554128 112,365.749513 L113.433071,364.238174 C113.817725,364.796868 114.551851,365.763839 115.82074,366.370284 C117.232702,367.041195 118.431228,366.549353 118.900318,365.537018 C119.413972,364.41008 118.874518,363.536225 117.42972,361.99146 C115.536941,360.028868 114.849724,358.297872 115.792595,356.242164 C116.890266,353.852196 119.503099,353.006992 122.678841,354.518331 C124.144748,355.215505 125.317474,356.251715 126,357.261662 L124.524711,358.858954 Z" id="Fill-61" fill="#FFFFFF"></path>
            <path d="M102.034629,354.725595 C101.192139,356.164161 100.533,358.824107 103.132419,360.302374 C105.469576,361.628844 107.697649,360.071176 108.788477,358.56255 L102.034629,354.725595 Z M109.749334,356.911468 C111.462165,353.735414 110.215837,351.320678 107.881001,349.991873 C106.223871,349.048398 105.035566,348.758816 103.988835,348.649055 L104.527286,346.762105 C105.525278,346.839171 107.196333,347.194142 109.220166,348.347797 C113.13322,350.571036 114.003562,354.515415 111.852078,358.35237 C109.670423,362.238366 105.720234,363.966514 101.988211,361.848365 C97.8616329,359.50369 98.8062432,355.227692 100.126841,352.873675 C100.393746,352.399602 100.653688,352.056308 100.83936,351.850799 L109.749334,356.911468 Z" id="Fill-63" fill="#FFFFFF"></path>
            <path d="M90.5430838,345.807394 C92.9806187,347.590654 96.1114862,349.085195 97.7711359,346.63473 C98.8002636,345.123205 98.2470471,343.7524 97.1067929,342.971163 C95.4447274,341.833274 93.7222671,342.185073 92.6085866,342.98572 C92.3815021,343.211357 92.1713282,343.410306 92.00947,343.643221 L90.5430838,345.807394 Z M90.6372997,340.908891 C91.3789481,339.814673 92.0529543,338.710751 92.5047076,337.762105 L94.5581314,339.166877 L93.6860302,340.89676 L93.7367619,340.933153 C95.0920217,340.447912 97.0608928,340.460043 98.8509953,341.687702 C101.368251,343.410306 101.45522,346.14221 100.235245,347.937601 C98.1624943,350.989764 94.3310469,350.810225 89.5139561,347.43295 L89.3206926,347.719242 C88.6128653,348.76251 87.6513798,350.85147 90.1927938,352.593484 C91.3596218,353.391705 92.8549975,353.879372 94.1015466,353.893929 L93.5918143,355.762105 C92.0964386,355.728138 90.2797624,355.097326 88.721576,354.032223 C84.8804654,351.402218 85.7356561,348.126844 87.4532848,345.601167 L90.6372997,340.908891 Z" id="Fill-65" fill="#FFFFFF"></path>
            <path d="M83.7044566,343.174711 C82.6278342,344.508221 81.7693511,345.671886 80.9648163,346.762105 L79.123534,345.336787 L80.8451916,343.057656 L80.7724785,343.002571 C78.994527,344.099676 76.9257232,344.062953 75.539484,342.9888 C75.297889,342.805184 75.1313526,342.674358 75,342.497628 L76.5715403,340.553595 C76.7216575,340.746392 76.9186865,340.936893 77.2071931,341.159528 C78.7154027,342.325488 80.6340891,342.017932 82.1704457,340.693602 C82.4683346,340.468673 82.7756059,340.135869 83.0195465,339.830608 L87.9147772,333.762105 L90,335.373334 L83.7044566,343.174711 Z" id="Fill-67" fill="#FFFFFF"></path>
            <path d="M73.4999606,322.762105 C74.2855992,322.966155 75.830367,323.643893 77.3413958,325.018803 C80.739403,328.103847 80.8767692,332.432625 77.772774,335.906336 C74.6519092,339.401909 69.9935064,339.805151 66.3159468,336.467474 C65.1254393,335.388923 64.3084716,334.091747 64,333.302267 L65.8893884,332.128979 C66.125562,332.852871 66.6653872,333.809963 67.7811868,334.825356 C70.3646362,337.169503 73.5023706,336.489336 75.5990133,334.145189 C77.9462892,331.516828 77.7173455,328.375914 75.4568272,326.325695 C74.3193383,325.29087 73.2758368,324.897344 72.4636889,324.630136 L73.4999606,322.762105 Z" id="Fill-69" fill="#FFFFFF"></path>
            <path d="M55.8503329,335.762105 L54,333.82207 L60.869241,327.51284 L60.8260985,327.470512 C59.9368842,327.656285 58.970972,327.625715 58.0553928,327.336473 C57.1613848,327.068396 56.2961385,326.565162 55.5938748,325.826773 C54.2061252,324.375862 52.9046605,321.264751 56.7011984,317.77739 L63.2540613,311.762105 L65.1043941,313.704492 L58.7816245,319.510489 C56.9840213,321.158931 56.1211718,323.16481 57.8924101,325.017837 C59.1243675,326.308842 60.9938748,326.435827 62.3816245,325.831476 C62.8058589,325.652758 63.1438083,325.424657 63.5081225,325.090735 L70.1520639,318.993146 L72,320.935533 L55.8503329,335.762105 Z" id="Fill-71" fill="#FFFFFF"></path>
            <polygon id="Fill-73" fill="#FFFFFF" points="12 263.155839 31.0805665 255.762105 32 258.368372 12.9217553 265.762105"></polygon>
            <path d="M18.4348538,244.955828 C18.1057095,245.050865 17.6660496,245.21005 17.3561254,245.36686 C15.7992968,246.267327 14.8743293,248.08014 15.4557375,250.035508 C16.2581769,252.729782 19.105155,253.673015 22.3101076,252.741661 C25.2459788,251.888712 27.2712974,249.724265 26.4352228,246.911196 C25.9138774,245.162532 24.2513383,243.941318 22.1251141,244.012595 C21.7383095,244.026851 21.3731275,244.102879 20.9526877,244.22405 L18.4348538,244.955828 Z M5,246.058247 L22.5527615,240.95956 C23.8092759,240.593671 25.2291612,240.118491 26.2310092,239.762105 L26.9181279,242.071483 L24.4363318,242.924432 L24.465162,243.01234 C26.3391223,243.304576 28.0569192,244.703983 28.744038,247.010984 C29.7819237,250.508313 27.6076492,254.034152 23.2350752,255.302884 C18.3916086,256.745057 14.5788201,254.635256 13.5385319,251.140303 C12.8874508,248.949721 13.4664565,247.172546 14.4418769,246.181794 L14.4226568,246.120021 L5.76640171,248.636102 L5,246.058247 Z" id="Fill-75" fill="#FFFFFF"></path>
            <path d="M14.8326109,228.195058 C13.1157595,228.501571 10.5514722,229.784024 11.1546903,232.881038 C11.699296,235.666634 14.4613998,236.390006 16.4053738,236.233071 L14.8326109,228.195058 Z M18.3737695,235.877515 C22.0687854,235.085484 23.1360173,232.437206 22.5938537,229.656515 C22.2079896,227.685019 21.6267511,226.530076 20.9942269,225.615439 L22.8649355,224.762105 C23.4852488,225.612987 24.3448956,227.199502 24.816236,229.607473 C25.7271686,234.268932 23.1848609,237.657746 18.6668309,238.550314 C14.0877465,239.450238 10.0117508,237.459126 9.14477748,233.018356 C8.1825592,228.106782 12.2292488,225.946474 14.998679,225.399654 C15.5628222,225.289309 16.0097409,225.26724 16.3028023,225.274596 L18.3737695,235.877515 Z" id="Fill-77" fill="#FFFFFF"></path>
            <path d="M14.4510505,214.330823 C14.687578,217.217354 15.5926579,220.431056 18.5227031,220.122448 C20.3328627,219.929858 21.0086557,218.676862 20.8566023,217.356576 C20.6393831,215.437636 19.2588347,214.398113 17.9265571,214.084864 C17.6103826,214.05702 17.320757,214.026855 17.0383721,214.05702 L14.4510505,214.330823 Z M18.2161827,211.353798 C19.5267383,211.214576 20.7962636,211.019666 21.8099531,210.762105 L22.0802702,213.128875 L20.2073583,213.572064 L20.2121854,213.630073 C21.4575753,214.319221 22.7295142,215.762487 22.9636282,217.83225 C23.2966976,220.741985 21.2886271,222.50082 19.1357438,222.728215 C15.4864619,223.113395 13.1332543,220.203661 12.5564167,214.590704 L12.2112796,214.627829 C10.9658897,214.76009 8.76232198,215.354103 9.09539136,218.294002 C9.24985832,219.644453 9.85083134,221.038991 10.6521287,221.953214 L8.9095483,222.744458 C7.96102462,221.630684 7.2610962,219.913615 7.05594477,218.115334 C6.54910006,213.676481 9.57327352,212.26338 12.5998605,211.94549 L18.2161827,211.353798 Z" id="Fill-79" fill="#FFFFFF"></path>
            <path d="M2,204.132353 L6.4253395,203.960115 L6.26459519,200.203034 L8.35183568,200.122656 L8.5150155,203.879737 L16.7689922,203.558227 C18.6662621,203.484739 19.7208422,202.935874 19.6550831,201.475297 C19.6258569,200.788643 19.5113875,200.315563 19.4017891,199.961901 L21.481723,199.762105 C21.7569367,200.25815 21.9517783,201.057334 21.9956177,202.099947 C22.0467636,203.294129 21.6473383,204.325259 20.9483442,204.979763 C20.0934767,205.700865 18.7807315,206.049934 16.9760113,206.118829 L8.62948493,206.442636 L8.72447021,208.679431 L6.63722973,208.762105 L6.53980893,206.52531 L2.84025434,206.667693 L2,204.132353 Z" id="Fill-81" fill="#FFFFFF"></path>
            <g id="Group-85" transform="translate(0.000000, 192.762105)">
                <mask id="mask-6" fill="white">
                    <use xlink:href="#path-5"></use>
                </mask>
                <g id="Clip-84"></g>
                <path d="M20.3903668,3.4611456 L5.78444677,3.2238336 L5.82864369,0.6180096 L20.4368898,0.8553216 L20.3903668,3.4611456 Z M1.690416,0.1917696 C2.59994215,0.2055936 3.31174523,0.8760576 3.29546215,1.8944256 C3.28150523,2.8528896 2.54411446,3.5026176 1.63458831,3.4565376 C0.729714462,3.4703616 -0.0146547692,2.7699456 -0.000697846154,1.8114816 C0.0155852308,0.8530176 0.755302154,0.2055936 1.690416,0.1917696 L1.690416,0.1917696 Z" id="Fill-83" fill="#FFFFFF" mask="url(#mask-6)"></path>
            </g>
            <path d="M13.7033844,187.922455 C16.7746446,188.151299 19.6702649,186.807445 19.9020121,183.713172 C20.1264409,180.682197 17.4650073,178.836832 14.3644738,178.605553 C11.7054796,178.408357 8.32440995,179.396771 8.06826831,182.83918 C7.81456611,186.249941 10.9834041,187.72039 13.7033844,187.922455 M14.5401137,175.793684 C20.2045032,176.209987 22.2389996,180.521519 21.9779791,184.056439 C21.6779275,188.068526 18.4310272,191.099501 13.4960316,190.731889 C8.36831994,190.354539 5.71664411,186.663809 6.02401407,182.527562 C6.33870237,178.26472 9.63683092,175.428506 14.5401137,175.793684" id="Fill-86" fill="#FFFFFF"></path>
            <path d="M11.0104284,170.95185 C9.47477452,170.695925 8.20744081,170.545657 7,170.407129 L7.4072717,168.059197 L9.85569335,168.343297 L9.86767193,168.254076 C8.6123168,167.300815 7.52466178,165.384903 7.94151635,162.978272 C8.28649944,160.991922 10.0593292,158.066398 15.1262683,158.911654 L24,160.390851 L23.544814,163.008795 L15.0088782,161.585948 C12.582018,161.182104 10.4354566,161.719781 9.9994363,164.21798 C9.6975761,165.964842 10.7277339,167.498041 12.1483935,168.230596 C12.464628,168.406691 12.9102311,168.573394 13.3678129,168.653224 L22.3062289,170.141813 L21.8510428,172.762105 L11.0104284,170.95185 Z" id="Fill-88" fill="#FFFFFF"></path>
            <path d="M44.1061791,106.339885 C44.4785682,105.90786 44.8770482,105.308364 45.4012393,104.451596 C46.8647047,102.041479 47.3699204,99.2430248 44.831982,97.6265717 C42.3984075,96.0756506 40.1024034,97.5853109 38.5535494,100.128919 L37.3818283,102.056041 L44.1061791,106.339885 Z M35.6811724,100.973552 L36.966745,98.8571148 C38.4468137,96.4227268 38.0625651,94.1315381 36.3619092,93.0490485 C34.293608,91.7311296 32.5051916,92.8233276 31.0725609,95.1776211 C30.4202871,96.2504022 30.1237989,96.9154295 29.9743689,97.3401732 L35.6811724,100.973552 Z M27,98.7139156 C27.4269429,97.5367688 28.2594816,95.8038146 29.2367064,94.19707 C30.6551057,91.8670475 31.9596534,90.6170876 33.517995,90.0855512 C34.7822204,89.5540149 36.1721568,89.6583804 37.5573493,90.5418473 C39.2603771,91.626764 40.062081,93.7698992 39.5758405,96.0610879 L39.6280224,96.0950674 C41.0891159,94.6485118 43.6697486,93.5053446 46.3405137,95.2067464 C47.8324419,96.1557451 48.6246582,97.4785182 48.9021711,98.9930328 C49.279304,100.939572 48.5653606,103.308429 46.7722004,106.254936 C45.7783722,107.888379 44.9434616,109.026692 44.3481134,109.762105 L27,98.7139156 Z" id="Fill-90" fill="#FFFFFF"></path>
            <path d="M44.8949558,89.6521451 C43.4437511,88.6075236 42.1842607,87.7756511 41,87.0011491 L42.4342174,85.069675 L44.9095164,86.7358104 L44.9653319,86.6617069 C43.7373895,84.8903921 43.700988,82.7820256 44.7808979,81.3286391 C44.9653319,81.0776431 45.0963772,80.9007507 45.2783845,80.7621053 L47.3920957,82.2848144 C47.1931011,82.4497547 46.99896,82.6577228 46.7756977,82.958918 C45.601144,84.5389977 45.9991333,86.4800336 47.4576183,87.993181 C47.7051482,88.2872049 48.0715895,88.5884001 48.4016294,88.8274439 L55,93.5796351 L53.3789218,95.7621053 L44.8949558,89.6521451 Z" id="Fill-92" fill="#FFFFFF"></path>
            <path d="M58.2016151,77.564493 C56.1811575,79.7543177 54.3787349,82.6434734 56.6438762,84.4965831 C58.0441454,85.6409431 59.4613728,85.2406526 60.3553163,84.2093158 C61.6538358,82.7094036 61.4818304,81.0069916 60.7962315,79.846149 C60.5951548,79.6036201 60.4207268,79.3799283 60.2026918,79.2009749 L58.2016151,77.564493 Z M63.0613728,78.136673 C64.0740242,78.9655099 65.1012113,79.7260619 66,80.2629221 L64.3962315,82.1113225 L62.7633917,81.0964683 L62.7222073,81.1435613 C63.066218,82.5045491 62.8554509,84.4141704 61.4551817,86.0294604 C59.4855989,88.3016978 56.7625841,88.1156804 55.1006729,86.7546926 C52.2831763,84.4471355 52.8500673,80.7503347 56.6923284,76.4083598 L56.4282638,76.191732 C55.461642,75.4029241 53.4847914,74.2632735 51.4934051,76.5590574 C50.5800808,77.6139407 49.9453567,79.0126029 49.8048452,80.2205384 L48,79.5447538 C48.186541,78.0942893 48.9981157,76.3965865 50.2166891,74.9908604 C53.2183042,71.5248153 56.3846568,72.6738846 58.7224764,74.5858605 L63.0613728,78.136673 Z" id="Fill-94" fill="#FFFFFF"></path>
            <path d="M59.9779501,68.846773 C58.8681851,67.7250491 57.9110734,66.8515156 57,66.0193473 L58.7397625,64.2820134 L60.5861401,65.9633827 L60.6515629,65.895252 C60.188757,64.3501441 60.4383329,62.0920967 62.2289799,60.306098 C63.6997819,58.8339873 66.9127696,57.4105414 70.5788709,61.1115006 L77,67.5912208 L75.0591228,69.5329469 L68.8803005,63.2989841 C67.1235764,61.5275848 65.0324691,60.7173156 63.1788224,62.5690119 C61.8824812,63.863496 61.8122123,65.763857 62.5464017,67.2213682 C62.699055,67.5571554 62.9655924,67.9586402 63.2975527,68.2944274 L69.7647201,74.8228124 L67.8214199,76.7621053 L59.9779501,68.846773 Z" id="Fill-96" fill="#FFFFFF"></path>
            <path d="M82.0699415,52.3795677 C81.8499308,52.1201033 81.5283766,51.7881758 81.2600118,51.5684491 C79.8045559,50.5212413 77.7422572,50.3880028 76.1369039,51.6596123 C73.9247077,53.410413 74.1616424,56.327635 76.2916367,58.8428039 C78.2427212,61.1452588 81.0690134,62.1293537 83.3803353,60.3014149 C84.8140319,59.1630438 85.3048251,57.2018666 84.4054405,55.3248399 C84.2362014,54.9835624 84.0234437,54.6820226 83.7429904,54.3547701 L82.0699415,52.3795677 Z M75.7597426,40.7621053 L87.4324018,54.534759 C88.2665086,55.5235289 89.2722721,56.6128121 90,57.3725053 L88.1021049,58.8755292 L86.332348,56.9774649 L86.2598169,57.0359028 C86.7240155,58.8287788 86.0857425,60.9044944 84.1902651,62.4075183 C81.3204543,64.6819229 77.162009,64.0881934 74.253515,60.6567176 C70.9992898,56.8676015 71.4804122,52.6366947 74.3478053,50.3646276 C76.1465747,48.9387418 78.0396344,48.7751156 79.3524459,49.2683318 L79.4007999,49.228594 L73.6442544,42.4381054 L75.7597426,40.7621053 Z" id="Fill-98" fill="#FFFFFF"></path>
            <path d="M92.7941274,54.7621053 L84.0736255,42.6747312 L86.2794981,41.1245225 L95,53.2118966 L92.7941274,54.7621053 Z M84.1119469,37.48295 C84.6532359,38.2344231 84.5286915,39.2269347 83.6640661,39.8318942 C82.8545276,40.4014069 81.8629627,40.193452 81.3480196,39.4254371 C80.7779895,38.6928689 80.9121143,37.6578211 81.7216527,37.0883084 C82.5359814,36.5164327 83.5275463,36.7267506 84.1119469,37.48295 L84.1119469,37.48295 Z" id="Fill-100" fill="#FFFFFF"></path>
            <path d="M93.2385542,41.30168 C92.4168675,39.9615941 91.6915663,38.8948471 91,37.8837355 L93.0819277,36.599285 L94.4843373,38.6505355 L94.5638554,38.6021569 C94.4674699,37.0008269 95.2240964,34.8721708 97.3590361,33.5562742 C99.1204819,32.4701758 102.554217,31.82916 105.260241,36.2509594 L110,43.9939462 L107.674699,45.4283702 L103.118072,37.9780736 C101.821687,35.8590932 99.9807229,34.596413 97.7662651,35.963107 C96.2168675,36.9185834 95.7156627,38.7400358 96.0939759,40.3171765 C96.1662651,40.6775967 96.3325301,41.1299361 96.5783133,41.5314781 L101.349398,49.3276813 L99.026506,50.7621053 L93.2385542,41.30168 Z" id="Fill-102" fill="#FFFFFF"></path>
            <path d="M118.167571,29.3495657 C117.967693,28.9283726 117.765464,28.5769772 117.495041,28.2953795 C116.371023,27.0823433 114.626209,26.4926729 112.84377,27.3856023 C110.567516,28.5240272 109.843254,31.3568518 111.348215,34.5049695 C112.620378,37.1717237 115.040073,38.7481893 117.647889,37.4436941 C119.129335,36.7023942 120.004094,35.0440967 119.775999,33.2101015 C119.710156,32.7191107 119.536145,32.2160857 119.336268,31.7948926 L118.167571,29.3495657 Z M123.550159,34.418324 C125.052769,37.5664418 125.346707,39.7518324 124.620093,41.5762003 C123.907588,43.42945 122.240373,44.7868953 120.568455,45.6244679 C118.976488,46.4211246 117.034147,46.904895 115.585622,46.7243836 L115.289333,44.5413999 C116.462732,44.6472999 118.092323,44.4956703 119.738374,43.6725386 C122.209803,42.4354343 123.376148,40.1802459 121.741854,36.7529373 L121.01524,35.2366421 L120.958804,35.2631171 C120.822417,36.8997532 119.851247,38.6374757 117.819549,39.6531528 C114.496876,41.316264 110.795612,39.6194574 108.999064,35.8527875 C106.795707,31.2461381 108.500546,27.1930569 111.545741,25.6671344 C113.852565,24.5142686 115.691439,25.0894981 116.8037,25.9246639 L116.857784,25.8957821 L116.004189,23.8186983 L118.11819,22.7621053 C118.517945,23.7440869 118.988245,24.8680709 119.780702,26.5263684 L123.550159,34.418324 Z" id="Fill-104" fill="#FFFFFF"></path>
            <path d="M163,16.2621053 C163,18.1964386 161.432,19.7621053 159.5,19.7621053 C157.568,19.7621053 156,18.1964386 156,16.2621053 C156,14.3277719 157.568,12.7621053 159.5,12.7621053 C161.432,12.7621053 163,14.3277719 163,16.2621053" id="Fill-106" fill="#FFFFFF"></path>
            <path d="M342,80.2621053 C342,82.1964386 340.432,83.7621053 338.5,83.7621053 C336.568,83.7621053 335,82.1964386 335,80.2621053 C335,78.3277719 336.568,76.7621053 338.5,76.7621053 C340.432,76.7621053 342,78.3277719 342,80.2621053" id="Fill-108" fill="#FFFFFF"></path>
            <path d="M373,256.262105 C373,258.194105 371.432,259.762105 369.5,259.762105 C367.568,259.762105 366,258.194105 366,256.262105 C366,254.330105 367.568,252.762105 369.5,252.762105 C371.432,252.762105 373,254.330105 373,256.262105" id="Fill-110" fill="#FFFFFF"></path>
            <path d="M187,379.262105 C187,381.194105 185.432,382.762105 183.5,382.762105 C181.568,382.762105 180,381.194105 180,379.262105 C180,377.330105 181.568,375.762105 183.5,375.762105 C185.432,375.762105 187,377.330105 187,379.262105" id="Fill-112" fill="#FFFFFF"></path>
            <path d="M40,291.262105 C40,293.194105 38.432,294.762105 36.5,294.762105 C34.568,294.762105 33,293.194105 33,291.262105 C33,289.330105 34.568,287.762105 36.5,287.762105 C38.432,287.762105 40,289.330105 40,291.262105" id="Fill-114" fill="#FFFFFF"></path>
            <path d="M26,130.262105 C26,132.196439 24.432,133.762105 22.5,133.762105 C20.568,133.762105 19,132.196439 19,130.262105 C19,128.327772 20.568,126.762105 22.5,126.762105 C24.432,126.762105 26,128.327772 26,130.262105" id="Fill-116" fill="#FFFFFF"></path>
        </g>
    </g>
</svg>