<svg id="svg-logo" viewBox="0 0 87.37 25.01">
        
        <path d="M0,23.4H5.05q0-9.61,0-19.22l-4.63,0c0-.86,0-1.72,0-2.58H7.2c.08,1.94.15,3.89.22,5.83A14.19,14.19,0,0,1,17.71,1c-.06.88-.12,1.77-.19,2.65a21.35,21.35,0,0,0-2.89.43,10.21,10.21,0,0,0-2.75,1.2,9.32,9.32,0,0,0-4.26,8c0,2.54,0,5.08,0,7.62V23.4h4.79V26H0Z" transform="translate(0 -1)"></path>
        <path class="cls-2" d="M83.61,24a2,2,0,0,1,.58-1.42A1.82,1.82,0,0,1,85.52,22a1.78,1.78,0,0,1,1.28.58,2.07,2.07,0,0,1,0,2.85,1.78,1.78,0,0,1-1.28.58,1.82,1.82,0,0,1-1.33-.58A2,2,0,0,1,83.61,24" transform="translate(0 -1)"></path>
        <polygon points="50.01 25 50.01 22.52 53.76 22.52 61.88 12.15 54.27 2.48 50.35 2.48 50.35 0 61.31 0 61.31 2.48 57.44 2.48 63.61 10.5 69.66 2.48 65.8 2.48 65.8 0 76.92 0 76.92 2.48 72.6 2.48 65.17 12.09 73.29 22.52 77.1 22.52 77.1 25 65.86 25 65.86 22.52 70.18 22.52 63.38 13.87 56.75 22.52 60.67 22.52 60.67 25 50.01 25"></polygon>
        <path d="M22.55,13.53a9.17,9.17,0,0,0,.82,3.87,9.86,9.86,0,0,0,2.28,3.15A10.59,10.59,0,0,0,29,22.67a11,11,0,0,0,4.14.78,11.2,11.2,0,0,0,4.17-.78,10.51,10.51,0,0,0,3.41-2.12A9.86,9.86,0,0,0,43,17.4a9.41,9.41,0,0,0,0-7.73,9.86,9.86,0,0,0-2.28-3.15,11.14,11.14,0,0,0-3.41-2.16,11,11,0,0,0-4.17-.8,10.79,10.79,0,0,0-4.14.8,11.24,11.24,0,0,0-3.38,2.16,9.86,9.86,0,0,0-2.28,3.15,9.16,9.16,0,0,0-.82,3.86m-2.75,0a11.47,11.47,0,0,1,1.06-4.86,12.61,12.61,0,0,1,2.89-4A13.72,13.72,0,0,1,28,2a13.87,13.87,0,0,1,5.26-1A14.21,14.21,0,0,1,42.9,4.68a12.55,12.55,0,0,1,2.92,4,11.47,11.47,0,0,1,1.06,4.86,11.42,11.42,0,0,1-1.06,4.9,12.3,12.3,0,0,1-2.92,3.93A14.48,14.48,0,0,1,38.57,25a14.19,14.19,0,0,1-5.3,1A13.87,13.87,0,0,1,28,25a14,14,0,0,1-4.26-2.65,12.37,12.37,0,0,1-2.89-3.93,11.42,11.42,0,0,1-1.06-4.9" transform="translate(0 -1)"></path>
    </svg>