<?xml version="1.0" encoding="UTF-8"?>
<svg width="89px" height="45px" viewBox="0 0 89 45" version="1.1" xmlns="http://www.w3.org/2000/svg" xmlns:xlink="http://www.w3.org/1999/xlink">
    <title>Group</title>
    <defs>
        <polygon id="path-1" points="0.29335514 0.347878525 4.47189611 0.347878525 4.47189611 4.52422916 0.29335514 4.52422916"></polygon>
    </defs>
    <g id="Symbols" stroke="none" stroke-width="1" fill="none" fill-rule="evenodd">
        <g id="Rox-logo/mobile" transform="translate(0.000000, -1.000000)">
            <g id="Group" transform="translate(0.000000, 1.000000)">
                <g id="Group-10-Copy">
                    <path d="M0,22.391765 L5.12765032,22.391765 C5.12765032,15.9891235 5.12337816,9.58612896 5.11696994,3.1831344 C3.54980222,3.16406526 1.98227848,3.14464298 0.415110759,3.12557384 C0.412974684,2.26852179 0.41119462,1.41146974 0.409414557,0.554417685 C2.71317247,0.553005156 5.01693038,0.551945759 7.32033228,0.55053323 C7.39367089,2.49240766 7.46665348,4.43428208 7.53928006,6.37615651 C9.83627373,2.85119006 13.7915744,0.440002825 18,0 C17.9362737,0.882477576 17.8721915,1.76495515 17.8084652,2.64743273 C17.8159415,2.54855569 15.102057,3.01327777 14.8638845,3.07966664 C13.8859177,3.3515785 12.937856,3.7432022 12.0745253,4.27643195 C9.19331487,6.05621866 7.80628956,9.01264214 7.7400712,12.317254 C7.68951741,14.8552158 7.75751582,17.3949431 7.75751582,19.9325517 L7.75751582,22.391765 L12.6220728,22.391765 L12.6220728,25 L0,25 L0,22.391765 Z" id="Fill-1" fill="#FFFFFF"></path>
                    <g id="Group-5" transform="translate(84.000000, 21.000000)">
                        <mask id="mask-2" fill="white">
                            <use xlink:href="#path-1"></use>
                        </mask>
                        <g id="Clip-4"></g>
                        <path d="M0.29335514,2.11000971 C0.29335514,1.51960185 0.50728424,1.02414935 0.936309326,0.622503544 C1.36416753,0.22200639 1.85737134,0.0217578125 2.41514285,0.0217578125 C2.92857269,0.0217578125 3.39999463,0.22200639 3.82901972,0.622503544 C4.25726688,1.02414935 4.47197391,1.51960185 4.47197391,2.11000971 C4.47197391,2.70080044 4.25726688,3.19625294 3.82901972,3.5967501 C3.39999463,3.9983959 2.92857269,4.1982616 2.41514285,4.1982616 C1.85737134,4.1982616 1.36416753,3.9983959 0.936309326,3.5967501 C0.50728424,3.19625294 0.29335514,2.70080044 0.29335514,2.11000971" id="Fill-3" fill="#FFEC00"></path>
                    </g>
                    <polygon id="Fill-6" fill="#FFFFFF" points="51 25 51 22.5190082 54.7338319 22.5190082 62.8341148 12.1499801 55.2508186 2.4806372 51.3447757 2.4806372 51.3447757 0 62.2594887 0 62.2594887 2.4806372 58.410378 2.4806372 64.5576394 10.4963402 70.5889148 2.4806372 66.7405113 2.4806372 66.7405113 0 77.8274354 0 77.8274354 2.4806372 73.5189774 2.4806372 66.1085994 12.0861467 74.2081751 22.5190082 78 22.5190082 78 25 66.7977971 25 66.7977971 22.5190082 71.1059015 22.5190082 64.3274354 13.8674535 57.7211803 22.5190082 61.6275768 22.5190082 61.6275768 25"></polygon>
                    <path d="M22.7407407,12.5320874 C22.7407407,13.9047955 23.0147392,15.1921721 23.5653817,16.3931594 C24.1160242,17.5952045 24.8718821,18.6463329 25.834845,19.5472496 C26.7966742,20.4481664 27.920257,21.1555007 29.2033258,21.6703103 C30.4860166,22.1854725 31.861678,22.4425247 33.3287982,22.4425247 C34.7951625,22.4425247 36.181028,22.1854725 37.4879063,21.6703103 C38.7940287,21.1555007 39.9278156,20.4481664 40.8904006,19.5472496 C41.8533636,18.6463329 42.6088435,17.5952045 43.1591081,16.3931594 C43.7093726,15.1921721 43.9848828,13.9047955 43.9848828,12.5320874 C43.9848828,11.1593794 43.7093726,9.87270804 43.1591081,8.67172073 C42.6088435,7.47073343 41.8533636,6.41889986 40.8904006,5.51763047 C39.9278156,4.61706629 38.7940287,3.89880113 37.4879063,3.36177715 C36.181028,2.82686883 34.7951625,2.55782793 33.3287982,2.55782793 C31.861678,2.55782793 30.4860166,2.82686883 29.2033258,3.36177715 C27.920257,3.89880113 26.7966742,4.61706629 25.834845,5.51763047 C24.8718821,6.41889986 24.1160242,7.47073343 23.5653817,8.67172073 C23.0147392,9.87270804 22.7407407,11.1593794 22.7407407,12.5320874 M20,12.5320874 C20,10.8279267 20.3529856,9.20768688 21.0623583,7.67277856 C21.7698413,6.13822285 22.7290249,4.80641749 23.9406652,3.67665726 C25.1500378,2.54760226 26.5668934,1.65267983 28.1893424,0.991184767 C29.8099017,0.331100141 31.5578231,0 33.4315949,0 C35.3042328,0 37.0634921,0.331100141 38.7086168,0.991184767 C40.3529856,1.65267983 41.7917611,2.54760226 43.0253212,3.67665726 C44.2592593,4.80641749 45.2294029,6.13822285 45.9380197,7.67277856 C46.6458806,9.20768688 47,10.8279267 47,12.5320874 C47,14.2803244 46.6458806,15.9107898 45.9380197,17.4234838 C45.2294029,18.9372355 44.2592593,20.2478843 43.0253212,21.3554302 C41.7917611,22.4643865 40.3529856,23.3487306 38.7086168,24.0088152 C37.0634921,24.6692525 35.3042328,25 33.4315949,25 C31.5578231,25 29.8099017,24.6692525 28.1893424,24.0088152 C26.5668934,23.3487306 25.1500378,22.4643865 23.9406652,21.3554302 C22.7290249,20.2478843 21.7698413,18.9372355 21.0623583,17.4234838 C20.3529856,15.9107898 20,14.2803244 20,12.5320874" id="Fill-8" fill="#FFFFFF"></path>
                </g>
                <path d="M57.6777344,43.8804687 L58.3710937,41.2486328 L57.4824219,41.2486328 L57.0380859,42.9283203 L54.4794922,42.9283203 C54.5999349,42.6093099 54.8221029,42.2951823 55.1459961,41.9859375 C55.4698893,41.6766927 55.9410807,41.3348958 56.5595703,40.9605469 C57.226888,40.5666667 57.7355143,40.2297526 58.0854492,39.9498047 C58.4353841,39.6698568 58.6835937,39.3915365 58.8300781,39.1148437 C58.9765625,38.838151 59.0498047,38.5158854 59.0498047,38.1480469 C59.0498047,37.822526 58.9667969,37.5263021 58.8007812,37.259375 C58.6347656,36.9924479 58.394694,36.782487 58.0805664,36.6294922 C57.7664388,36.4764974 57.3929036,36.4 56.9599609,36.4 C56.1396484,36.4 55.5048828,36.646582 55.0556641,37.1397461 C54.6064453,37.6329102 54.344401,38.3401042 54.2695312,39.2613281 L54.2695312,39.2613281 L55.2509766,39.2613281 C55.4104818,37.9332031 55.9899089,37.2691406 56.9892578,37.2691406 C57.3017578,37.2691406 57.5418294,37.349707 57.7094727,37.5108398 C57.8771159,37.6719727 57.9609375,37.884375 57.9609375,38.1480469 C57.9609375,38.4703125 57.8494466,38.7697917 57.6264648,39.0464844 C57.4034831,39.3231771 57.0478516,39.6047526 56.5595703,39.8912109 C55.9280599,40.2785807 55.430013,40.6089844 55.0654297,40.8824219 C54.7008464,41.1558594 54.410319,41.4089518 54.1938477,41.6416992 C53.9773763,41.8744466 53.7666016,42.1503255 53.5615234,42.4693359 C53.2815755,42.9022786 53.0846354,43.3726562 52.9707031,43.8804687 L52.9707031,43.8804687 L57.6777344,43.8804687 Z M62.2412945,44.0025391 C63.0160341,44.0025391 63.6727724,43.7120117 64.2115093,43.130957 C64.7502463,42.5499023 65.1384299,41.8532878 65.3760601,41.0411133 C65.6136903,40.2289388 65.7325054,39.5022135 65.7325054,38.8609375 C65.7325054,37.2203125 65.0554221,36.4 63.7012554,36.4 C62.9362815,36.4 62.2852398,36.6880859 61.7481304,37.2642578 C61.2110211,37.8404297 60.8203961,38.5370443 60.5762554,39.3541016 C60.3321148,40.1711589 60.2100445,40.9003255 60.2100445,41.5416016 C60.2100445,42.3065755 60.3719911,42.9079753 60.6958843,43.3458008 C61.0197776,43.7836263 61.5349143,44.0025391 62.2412945,44.0025391 Z M62.2705914,43.1382812 C61.9450705,43.1382812 61.6952333,43.0267904 61.5210797,42.8038086 C61.346926,42.5808268 61.2598492,42.259375 61.2598492,41.8394531 C61.2598492,41.2404948 61.3583192,40.5813151 61.5552593,39.8619141 C61.7521994,39.142513 62.037844,38.5289062 62.4121929,38.0210937 C62.7865419,37.5132812 63.2064638,37.259375 63.6719586,37.259375 C64.0105002,37.259375 64.2635927,37.3724935 64.4312359,37.5987305 C64.5988791,37.8249674 64.6827007,38.1447917 64.6827007,38.5582031 C64.6827007,39.118099 64.5891135,39.763444 64.401939,40.4942383 C64.2147646,41.2250326 63.9364442,41.8484049 63.5669781,42.3643555 C63.1975119,42.880306 62.765383,43.1382812 62.2705914,43.1382812 Z M71.1017296,43.8804687 L71.795089,41.2486328 L70.9064171,41.2486328 L70.4620812,42.9283203 L67.9034874,42.9283203 C68.0239301,42.6093099 68.2460981,42.2951823 68.5699913,41.9859375 C68.8938846,41.6766927 69.365076,41.3348958 69.9835656,40.9605469 C70.6508833,40.5666667 71.1595096,40.2297526 71.5094445,39.9498047 C71.8593794,39.6698568 72.107589,39.3915365 72.2540734,39.1148437 C72.4005577,38.838151 72.4737999,38.5158854 72.4737999,38.1480469 C72.4737999,37.822526 72.3907921,37.5263021 72.2247765,37.259375 C72.0587609,36.9924479 71.8186893,36.782487 71.5045617,36.6294922 C71.1904341,36.4764974 70.8168989,36.4 70.3839562,36.4 C69.5636437,36.4 68.9288781,36.646582 68.4796593,37.1397461 C68.0304406,37.6329102 67.7683963,38.3401042 67.6935265,39.2613281 L67.6935265,39.2613281 L68.6749718,39.2613281 C68.834477,37.9332031 69.4139041,37.2691406 70.4132531,37.2691406 C70.7257531,37.2691406 70.9658247,37.349707 71.1334679,37.5108398 C71.3011111,37.6719727 71.3849327,37.884375 71.3849327,38.1480469 C71.3849327,38.4703125 71.2734419,38.7697917 71.0504601,39.0464844 C70.8274783,39.3231771 70.4718468,39.6047526 69.9835656,39.8912109 C69.3520551,40.2785807 68.8540083,40.6089844 68.4894249,40.8824219 C68.1248416,41.1558594 67.8343143,41.4089518 67.6178429,41.6416992 C67.4013716,41.8744466 67.1905968,42.1503255 66.9855187,42.4693359 C66.7055708,42.9022786 66.5086307,43.3726562 66.3946984,43.8804687 L66.3946984,43.8804687 L71.1017296,43.8804687 Z M77.0471257,43.8804687 L77.247321,42.9820312 L76.3049382,42.9820312 L77.8576726,36.5318359 L75.8361882,36.5318359 L75.6262272,37.4107422 L76.6272038,37.4107422 L75.2844304,42.9820312 L74.2883366,42.9820312 L74.0783757,43.8804687 L77.0471257,43.8804687 Z" id="2021" fill="#FFF034" fill-rule="nonzero"></path>
                <path d="M5.04345703,43.565918 L5.31640625,42.4360352 L4.40869141,42.4360352 L6.12255859,35.1171875 L8.19189453,35.1171875 L7.62060547,37.5356445 L8.75048828,37.5356445 L9.58203125,34 L1.83154297,34 L1,37.5356445 L2.15527344,37.5356445 L2.70117188,35.1171875 L4.74511719,35.1171875 L3.03125,42.4360352 L2.15527344,42.4360352 L1.90771484,43.565918 L5.04345703,43.565918 Z M12.4296985,43.565918 L12.6899524,42.4360352 L11.5981555,42.4360352 L11.8838,41.1220703 C12.1080839,40.1360677 12.4804797,39.3690592 13.0009875,38.8210449 C13.5214953,38.2730306 14.192231,37.9990234 15.0131946,37.9990234 C15.059744,37.9990234 15.1697701,38.0096029 15.3432727,38.0307617 L15.3432727,38.0307617 L15.6416125,36.8056641 L15.3686633,36.8056641 C14.6492623,36.8056641 14.0599882,36.9611816 13.6008411,37.2722168 C13.1416939,37.583252 12.7174589,38.0900065 12.328136,38.7924805 L12.328136,38.7924805 L12.7661243,36.8945312 L10.6079211,36.8945312 L10.3222766,38.0307617 L11.3505969,38.0307617 L10.3349719,42.4360352 L9.46534301,42.4360352 L9.19239379,43.565918 L12.4296985,43.565918 Z M19.2700415,43.7626953 C19.8709529,43.7626953 20.4549373,43.6241048 21.0219946,43.3469238 C21.5890519,43.0697428 22.0016496,42.7089844 22.2597876,42.2646484 L22.2597876,42.2646484 L20.958518,41.71875 C20.5099503,42.3535156 19.942893,42.6708984 19.2573462,42.6708984 C18.7706925,42.6708984 18.3718481,42.5079753 18.060813,42.1821289 C17.7497778,41.8562826 17.5942602,41.4373372 17.5942602,40.925293 C17.5942602,40.7687174 17.6154191,40.6396484 17.6577368,40.5380859 L17.6577368,40.5380859 L22.8882055,40.5380859 C22.9474503,40.2164714 22.9770727,39.9435221 22.9770727,39.7192383 C22.9770727,39.1479492 22.8554093,38.634847 22.6120825,38.1799316 C22.3687557,37.7250163 22.0280981,37.3674316 21.5901098,37.1071777 C21.1521216,36.8469238 20.6517147,36.7167969 20.0888891,36.7167969 C19.4245011,36.7167969 18.7950252,36.898763 18.2004614,37.2626953 C17.6058976,37.6266276 17.1308813,38.1249186 16.7754126,38.7575684 C16.4199438,39.3902181 16.2422094,40.0789388 16.2422094,40.8237305 C16.2422094,41.3950195 16.3659887,41.90389 16.6135473,42.3503418 C16.8611059,42.7967936 17.2144588,43.1437988 17.6736059,43.3913574 C18.1327531,43.638916 18.6648983,43.7626953 19.2700415,43.7626953 Z M21.7011938,39.5986328 L17.8926001,39.5986328 C18.0999568,39.0527344 18.4057023,38.6179199 18.8098364,38.2941895 C19.2139705,37.970459 19.6445532,37.8085938 20.1015844,37.8085938 C20.5967016,37.8085938 20.9891984,37.9641113 21.2790747,38.2751465 C21.568951,38.5861816 21.7138891,38.9596354 21.7138891,39.3955078 L21.7138891,39.3955078 L21.7011938,39.5986328 Z M42.1230908,34 L40.1489697,42.4360352 L41.0693798,42.4360352 L40.7964306,43.565918 L38.6382275,43.565918 L38.8223095,42.7470703 L38.6614141,42.896108 C38.0633826,43.4188199 37.3764545,43.6801758 36.6006298,43.6801758 C36.0716585,43.6801758 35.6029899,43.5511068 35.194624,43.2929688 C34.7862581,43.0348307 34.4699332,42.6730143 34.2456494,42.2075195 C34.0213655,41.7420247 33.9092236,41.219401 33.9092236,40.6396484 C33.9092236,39.9752604 34.0806103,39.3394368 34.4233837,38.7321777 C34.7661572,38.1249186 35.2168408,37.637207 35.7754345,37.269043 C36.3340283,36.9008789 36.9158968,36.7167969 37.52104,36.7167969 C38.0330843,36.7167969 38.4858837,36.8120117 38.8794384,37.0024414 C39.2729931,37.1928711 39.6348095,37.4954427 39.9648876,37.9101562 L39.9648876,37.9101562 L40.6313916,35.1171875 L39.5903759,35.1171875 L39.8506298,34 L42.1230908,34 Z M29.9634118,36.8056641 C30.458529,36.8056641 30.8362146,36.9400228 31.0964685,37.2087402 C31.3567224,37.4774577 31.4868493,37.8466797 31.4868493,38.3164062 C31.4868493,38.46875 31.4730961,38.6433105 31.4455896,38.8400879 C31.4180831,39.0368652 31.3535485,39.355306 31.251986,39.7954102 L31.251986,39.7954102 L30.6235681,42.4360352 L31.6138025,42.4360352 L31.3408532,43.565918 L29.1191735,43.565918 L30.1030603,39.3637695 L30.1316895,39.2155712 C30.1845434,38.9347198 30.2109704,38.7471401 30.2109704,38.652832 C30.2109704,38.4370117 30.1591312,38.2698568 30.0554528,38.1513672 C29.9517745,38.0328776 29.7814457,37.9736328 29.5444665,37.9736328 C29.0281905,37.9736328 28.353223,38.2698568 27.5195642,38.8623047 L27.5195642,38.8623047 L26.6753259,42.4360352 L27.6592126,42.4360352 L27.4180017,43.565918 L24.3711267,43.565918 L24.6313806,42.4360352 L25.4248376,42.4360352 L26.4658532,38.0307617 L25.5962243,38.0307617 L25.8564782,36.8945312 L27.9765954,36.8945312 L27.7925134,37.6879883 L28.0139994,37.5348576 C28.7442422,37.0487286 29.3940463,36.8056641 29.9634118,36.8056641 Z M37.705122,37.8339844 C37.2523225,37.8339844 36.8333772,37.9725749 36.4482861,38.2497559 C36.0631949,38.5269368 35.7574495,38.8845215 35.5310498,39.3225098 C35.30465,39.760498 35.1914501,40.2122396 35.1914501,40.6777344 C35.1914501,41.2320964 35.3543733,41.6848958 35.6802197,42.0361328 C36.006066,42.3873698 36.4250113,42.5629883 36.9370556,42.5629883 C37.4237093,42.5629883 37.8616975,42.4180501 38.2510205,42.1281738 C38.6403434,41.8382975 38.9450309,41.4616699 39.165083,40.998291 C39.385135,40.5349121 39.4951611,40.0598958 39.4951611,39.5732422 C39.4951611,39.0823568 39.3269482,38.6697591 38.9905224,38.3354492 C38.6540966,38.0011393 38.2256298,37.8339844 37.705122,37.8339844 Z M45.7515197,43.6801758 C46.6105692,43.6801758 47.2654357,43.5024414 47.7161193,43.1469727 C48.1668029,42.7915039 48.3921447,42.3154297 48.3921447,41.71875 C48.3921447,41.2532552 48.2599019,40.8660482 47.9954162,40.5571289 C47.7309305,40.2482096 47.2262919,39.9371745 46.4815002,39.6240234 L46.4815002,39.6240234 L46.1260314,39.484375 C45.6859273,39.3108724 45.3981669,39.1680501 45.2627502,39.0559082 C45.1273335,38.9437663 45.0596252,38.7882487 45.0596252,38.5893555 C45.0596252,38.3608398 45.1664774,38.1756999 45.3801818,38.0339355 C45.5938863,37.8921712 45.8827046,37.8212891 46.2466369,37.8212891 C46.6782775,37.8212891 47.0221089,37.9059245 47.278131,38.0751953 C47.5341532,38.2444661 47.666396,38.4708659 47.6748596,38.7543945 L47.6748596,38.7543945 L48.7920471,38.7543945 L49.2236877,36.8945312 L48.1191955,36.8945312 L47.9731994,37.3769531 C47.5161682,36.9960938 46.9448791,36.8056641 46.2593322,36.8056641 C45.7980692,36.8056641 45.3833557,36.8902995 45.0151916,37.0595703 C44.6470275,37.2288411 44.361383,37.4605306 44.158258,37.7546387 C43.955133,38.0487467 43.8535705,38.3693034 43.8535705,38.7163086 C43.8535705,39.1225586 43.973118,39.46639 44.2122131,39.7478027 C44.4513081,40.0292155 44.8247619,40.2799479 45.3325744,40.5 L45.3325744,40.5 L45.8149963,40.6904297 C46.3016499,40.8893229 46.6465392,41.0691732 46.8496642,41.2299805 C47.0527892,41.3907878 47.1543517,41.5939128 47.1543517,41.8393555 C47.1543517,42.0890299 47.0379781,42.2942708 46.8052307,42.4550781 C46.5724833,42.6158854 46.2593322,42.6962891 45.8657775,42.6962891 C45.4172098,42.6962891 45.0585672,42.6095378 44.7898498,42.4360352 C44.5211323,42.2625326 44.3867736,42.0192057 44.3867736,41.7060547 L44.3867736,41.7060547 L43.2568908,41.7060547 L42.8125549,43.565918 L43.9424377,43.565918 L44.0249572,43.121582 C44.380426,43.4939779 44.9559468,43.6801758 45.7515197,43.6801758 Z" id="Trends-Copy-6" fill="#FFF034" fill-rule="nonzero"></path>
                <path d="M20.0888891,36.5667969 C20.6806584,36.5667969 21.2063901,36.7046876 21.6667338,36.9782252 C22.1285143,37.2526164 22.4877926,37.6295327 22.7443502,38.1091838 C22.9988605,38.5850075 23.1270727,39.1215237 23.1270727,39.7192383 C23.1270727,39.9270299 23.1028341,40.1752966 23.0536829,40.4639883 L23.0121379,40.6880859 L17.7991038,40.6880859 C17.7643138,41.4251604 17.8963861,41.7926307 18.1693163,42.0785575 C18.4521463,42.3748557 18.8154515,42.5208984 19.2573462,42.5208984 C19.8739846,42.5208984 20.3847939,42.240807 20.7941999,41.6898958 L20.9033452,41.5329397 L22.4840181,42.1960512 C22.0717664,42.8503444 21.6529152,43.205487 21.0878671,43.4816859 C20.4994888,43.7692887 19.8934876,43.9126953 19.2700415,43.9126953 C18.6376579,43.9126953 18.0820396,43.7819866 17.6024184,43.523389 C17.1171802,43.2617629 16.7439652,42.8948572 16.4823651,42.4230826 C16.2230107,41.955358 16.0922094,41.4224462 16.0922094,40.8237305 C16.0922094,40.0524053 16.2765313,39.3392395 16.6446412,38.6840915 C17.0131429,38.0282462 17.5058482,37.5119986 18.1221518,37.1347593 C18.7413711,36.7557355 19.3970551,36.5667969 20.0888891,36.5667969 Z M20.1015844,37.9585938 C19.6772268,37.9585938 19.27841,38.1110318 18.9036154,38.41126 C18.5770264,38.6728731 18.3188557,39.011307 18.1277411,39.4255358 L18.1277411,39.4255358 L21.5378578,39.1004355 L21.4990322,38.9408052 C21.4356318,38.7329767 21.3257065,38.5451924 21.169342,38.3774144 C20.9064798,38.0953653 20.5492142,37.9585938 20.1015844,37.9585938 Z M42.3122447,33.85 L40.3381236,42.2860352 L41.2599306,42.2860352 L40.9145094,43.715918 L38.4507629,43.715918 L38.5806507,43.1381413 C37.9183131,43.6336184 37.292735,43.8301758 36.6006298,43.8301758 C36.0412749,43.8301758 35.5461201,43.6926139 35.1144756,43.4197609 C34.6827687,43.1468684 34.3476911,42.7648771 34.1105169,42.2726288 C33.8769192,41.7878033 33.7592236,41.2436213 33.7592236,40.6396484 C33.7592236,39.949664 33.9367336,39.289177 34.292757,38.6584441 C34.6476689,38.0296803 35.1145603,37.5249695 35.6928875,37.1437992 C36.2778963,36.7582253 36.8875373,36.5667969 37.52104,36.5667969 C38.0579167,36.5667969 38.5322893,36.6678288 38.9447726,36.8674175 C39.1731108,36.9779038 39.3915192,37.1240738 39.5996935,37.3063424 L39.7539006,37.4498189 L40.4280674,35.2671875 L39.4014164,35.2671875 L39.7315567,33.85 L42.3122447,33.85 Z M37.705122,37.9839844 C37.2837392,37.9839844 36.8941563,38.1136431 36.5359142,38.3714987 C36.1698543,38.6349813 35.8794869,38.975093 35.6643005,39.3913882 C35.4494074,39.807116 35.3414501,40.2358178 35.3414501,40.6777344 C35.3414501,41.189519 35.4888109,41.6092572 35.7901859,41.934116 C36.0875225,42.2546217 36.4703829,42.4129883 36.9370556,42.4129883 C37.3905216,42.4129883 37.7986591,42.2779744 38.1614395,42.0078607 C38.5314022,41.7323993 38.8205134,41.3742023 39.0295853,40.9339451 C39.2397013,40.4914894 39.3451611,40.0379804 39.3451611,39.5732422 C39.3451611,39.1248051 39.1922983,38.7474221 38.8847915,38.4418493 C38.5760385,38.1350381 38.1821334,37.9839844 37.705122,37.9839844 Z M46.2593322,36.6556641 C46.8979403,36.6556641 47.4417307,36.8139729 47.8921802,37.1268163 L47.8921802,37.1268163 L49.4124866,36.7445313 L48.9112214,38.9043945 L47.539765,38.9043945 C47.5126821,38.5287258 47.4066801,38.3400069 47.1954039,38.2003201 C46.9599151,38.044625 46.6425859,37.9712891 46.2466369,37.9712891 C45.9186475,37.9712891 45.6563541,38.0307356 45.463101,38.1589332 C45.4872626,39.0470755 45.7628176,39.1799494 46.1854618,39.3466505 C47.4341886,39.8854968 47.8670191,40.1765206 48.1093598,40.4595745 C48.3960573,40.7944372 48.5421447,41.2134353 48.5421447,41.71875 C48.5421447,42.3650837 48.2968603,42.8799659 47.8090122,43.2647475 C47.3370188,43.637024 46.6531803,43.8301758 45.7515197,43.8301758 C44.953331,43.8301758 44.3687553,43.6455298 43.9876376,43.2950158 L43.9876376,43.2950158 L42.6017049,43.8029493 L43.1385056,41.5560547 L44.5280469,41.5560547 C44.5388675,41.9559235 44.6451701,42.1640702 44.871214,42.3100198 C45.1196104,42.4704018 45.4521336,42.5462891 45.8657775,42.5462891 C46.2224583,42.5462891 46.5083426,42.477881 46.7199659,42.3316686 C46.9060636,42.203092 47.0043517,42.0406765 47.0043517,41.8393555 C47.0043517,41.640687 46.9204815,41.4773595 46.7565588,41.3475873 C46.5607226,41.1925503 46.2271991,41.0209391 45.7599213,40.829953 L45.7599213,40.829953 L45.2679048,40.6353434 C44.6272699,40.3292359 44.312244,40.0972049 44.097901,39.844925 C43.8362935,39.5370153 43.7035705,39.1613056 43.7035705,38.7163086 C43.7035705,38.3386331 43.8137032,37.9895737 44.0348334,37.6693957 C44.2525012,37.3542309 44.557759,37.1047895 44.9525316,36.9232849 C45.3392379,36.7454889 45.7746937,36.6556641 46.2593322,36.6556641 Z M9.77140222,33.85 L8.86930269,37.6856445 L7.4310442,37.6856445 L8.00233326,35.2671875 L6.24149068,35.2671875 L4.59787501,42.2860352 L5.50695696,42.2860352 L5.16153583,43.715918 L1.72129148,43.715918 L2.03458041,42.2860352 L2.91231792,42.2860352 L4.55593359,35.2671875 L2.82108741,35.2671875 L2.27518897,37.6856445 L0.810629035,37.6856445 L1.71272856,33.85 L9.77140222,33.85 Z M15.2527172,36.6569992 L15.5217581,36.6578969 L15.4898147,38.1991656 C14.2372856,38.1490234 13.6021221,38.4059523 13.1097479,38.9243463 C12.6052439,39.4555111 12.2472997,40.2003222 12.0303765,41.1539348 L12.0303765,41.1539348 L11.7842677,42.2860352 L12.8784307,42.2860352 L12.5490756,43.715918 L9.00184307,43.715918 L9.3472642,42.2860352 L10.2156192,42.2860352 L11.16208,38.1807617 L10.1298997,38.1807617 L10.4909632,36.7445313 L12.9546819,36.7445313 L12.4742947,38.8262094 C12.6969866,37.880321 13.0934434,37.4347606 13.5167138,37.148029 C14.0298516,36.8004195 14.6971747,36.6341202 15.5217581,36.6578969 Z M29.9634118,36.6556641 C30.508026,36.6556641 30.9192147,36.8101132 31.2042178,37.1043846 C31.4889907,37.3984185 31.6368493,37.8007502 31.6368493,38.3164062 C31.6368493,38.4747833 31.6227425,38.6562735 31.5941452,38.8608537 C31.5702013,39.0321447 31.5188047,39.2942444 31.4391921,39.6488794 L31.4391921,39.6488794 L30.8133329,42.2860352 L31.8043532,42.2860352 L31.458932,43.715918 L28.9299899,43.715918 L29.9556943,39.3357825 C30.0339698,38.9236229 30.0609704,38.743467 30.0609704,38.652832 C29.1015652,38.1236328 28.5392077,38.3593723 27.853999,38.8143433 L27.853999,38.8143433 L26.8735545,42.2860352 L27.8446151,42.2860352 L27.5393592,43.715918 L24.1826484,43.715918 L24.5120034,42.2860352 L25.306153,42.2860352 L26.2762752,38.1807617 L25.4079823,38.1807617 L25.7369513,36.7445312 L28.1653793,36.7445313 L28.0225148,37.3603267 C28.8442365,36.8491057 29.4378835,36.6556641 29.9634118,36.6556641 Z" id="Trends-Copy-4" stroke="#000000" stroke-width="0.3" fill-rule="nonzero"></path>
            </g>
        </g>
    </g>
</svg>