<?xml version="1.0" encoding="UTF-8"?>
<svg width="89px" height="46px" viewBox="0 0 89 46" version="1.1" xmlns="http://www.w3.org/2000/svg" xmlns:xlink="http://www.w3.org/1999/xlink">
    <title>Group</title>
    <defs>
        <polygon id="path-1" points="0.264019626 0.533963384 4.0247065 0.533963384 4.0247065 4.54325999 0.264019626 4.54325999"></polygon>
    </defs>
    <g id="Symbols" stroke="none" stroke-width="1" fill="none" fill-rule="evenodd">
        <g id="Group">
            <g id="Group-9">
                <g id="Group-10-Copy">
                    <path d="M0,22.9959746 L5.04551177,22.9959746 C5.04551177,16.5921295 5.04130805,10.1879312 5.03500247,3.78373283 C3.49293882,3.7646601 1.95052486,3.74523418 0.408461204,3.72616145 C0.406359345,2.86894827 0.404607796,2.01173509 0.402856248,1.15452192 C2.66971084,1.15310912 4.93656543,1.15204952 7.20306971,1.15063673 C7.27523352,3.09287623 7.34704703,5.03511573 7.41851022,6.97735523 C9.67870892,3.45172608 13.5706506,1.04008555 17.7116625,0.6 C17.648957,1.48264348 17.5859013,2.36528696 17.5231958,3.24793045 C17.5305523,3.14903482 14.8601409,3.61384427 14.6257836,3.68024562 C13.6634827,3.9522086 12.7306077,4.34390593 11.8811065,4.87723592 C9.04604946,6.65735723 7.68124256,9.61433651 7.61608494,12.9195697 C7.56634095,15.4580085 7.63325012,17.9982134 7.63325012,20.5362991 L7.63325012,22.9959746 L12.419883,22.9959746 L12.419883,25.6047 L0,25.6047 L0,22.9959746 Z" id="Fill-1" fill="#FFFFFF"></path>
                    <g id="Group-5" transform="translate(83.349000, 21.379113)">
                        <mask id="mask-2" fill="white">
                            <use xlink:href="#path-1"></use>
                        </mask>
                        <g id="Clip-4"></g>
                        <path d="M0.264019626,2.22560932 C0.264019626,1.65881778 0.456555816,1.18318338 0.842678394,0.797603402 C1.22775077,0.413126134 1.67163421,0.2208875 2.17362857,0.2208875 C2.63571542,0.2208875 3.05999517,0.413126134 3.44611775,0.797603402 C3.83154019,1.18318338 4.02477652,1.65881778 4.02477652,2.22560932 C4.02477652,2.79276842 3.83154019,3.26840283 3.44611775,3.65288009 C3.05999517,4.03846007 2.63571542,4.23033113 2.17362857,4.23033113 C1.67163421,4.23033113 1.22775077,4.03846007 0.842678394,3.65288009 C0.456555816,3.26840283 0.264019626,2.79276842 0.264019626,2.22560932" id="Fill-3" fill="#FFEC00"></path>
                    </g>
                    <polygon id="Fill-6" fill="#FFFFFF" points="50.0094 25.6047 50.0094 23.1232417 53.7554602 23.1232417 61.8822715 12.7522643 54.27414 3.08110356 50.3553048 3.08110356 50.3553048 0.6 61.3057635 0.6 61.3057635 3.08110356 57.444047 3.08110356 63.6114407 11.0983135 69.6624685 3.08110356 65.8014615 3.08110356 65.8014615 0.6 76.9246952 0.6 76.9246952 3.08110356 72.602127 3.08110356 65.1674801 12.6884189 73.2935819 23.1232417 77.097825 23.1232417 77.097825 25.6047 65.8589349 25.6047 65.8589349 23.1232417 70.1811483 23.1232417 63.3804827 14.4700606 56.7525922 23.1232417 60.6717821 23.1232417 60.6717821 25.6047"></polygon>
                    <path d="M22.5451042,13.1344435 C22.5451042,14.5074096 22.82,15.7950282 23.3724458,16.9962413 C23.9248917,18.1985124 24.683225,19.2498384 25.6493417,20.1509245 C26.6143208,21.0520107 27.7415833,21.7594779 29.0288542,22.2743843 C30.3157458,22.7896434 31.6959125,23.0467439 33.1678375,23.0467439 C34.6390042,23.0467439 36.0294083,22.7896434 37.3405667,22.2743843 C38.6509667,21.7594779 39.7884667,21.0520107 40.7542042,20.1509245 C41.7203208,19.2498384 42.478275,18.1985124 43.0303417,16.9962413 C43.5824083,15.7950282 43.8588208,14.5074096 43.8588208,13.1344435 C43.8588208,11.7614774 43.5824083,10.4745641 43.0303417,9.27335102 C42.478275,8.07213793 41.7203208,7.02010661 40.7542042,6.11866778 C39.7884667,5.2179343 38.6509667,4.4995341 37.3405667,3.96240917 C36.0294083,3.42740028 34.6390042,3.1583088 33.1678375,3.1583088 C31.6959125,3.1583088 30.3157458,3.42740028 29.0288542,3.96240917 C27.7415833,4.4995341 26.6143208,5.2179343 25.6493417,6.11866778 C24.683225,7.02010661 23.9248917,8.07213793 23.3724458,9.27335102 C22.82,10.4745641 22.5451042,11.7614774 22.5451042,13.1344435 M19.7953875,13.1344435 C19.7953875,11.4299623 20.1495292,9.80941793 20.861225,8.27422104 C21.571025,6.73937683 22.53335,5.4073211 23.7489583,4.27734848 C24.9622917,3.14808121 26.3837875,2.25299053 28.01155,1.59137111 C29.6374167,0.931162388 31.3910625,0.6 33.2709708,0.6 C35.1497417,0.6 36.9147625,0.931162388 38.565275,1.59137111 C40.2150292,2.25299053 41.6585167,3.14808121 42.8961167,4.27734848 C44.1340958,5.4073211 45.1074167,6.73937683 45.8183542,8.27422104 C46.5285333,9.80941793 46.8838125,11.4299623 46.8838125,13.1344435 C46.8838125,14.8830091 46.5285333,16.5137811 45.8183542,18.0267594 C45.1074167,19.5407957 44.1340958,20.8516909 42.8961167,21.959445 C41.6585167,23.0686098 40.2150292,23.9531202 38.565275,24.6133289 C36.9147625,25.2738903 35.1497417,25.6047 33.2709708,25.6047 C31.3910625,25.6047 29.6374167,25.2738903 28.01155,24.6133289 C26.3837875,23.9531202 24.9622917,23.0686098 23.7489583,21.959445 C22.53335,20.8516909 21.571025,19.5407957 20.861225,18.0267594 C20.1495292,16.5137811 19.7953875,14.8830091 19.7953875,13.1344435" id="Fill-8" fill="#FFFFFF"></path>
                </g>
                <path d="M57.6777344,44.8804687 L58.3710937,42.2486328 L57.4824219,42.2486328 L57.0380859,43.9283203 L54.4794922,43.9283203 C54.5999349,43.6093099 54.8221029,43.2951823 55.1459961,42.9859375 C55.4698893,42.6766927 55.9410807,42.3348958 56.5595703,41.9605469 C57.226888,41.5666667 57.7355143,41.2297526 58.0854492,40.9498047 C58.4353841,40.6698568 58.6835937,40.3915365 58.8300781,40.1148437 C58.9765625,39.838151 59.0498047,39.5158854 59.0498047,39.1480469 C59.0498047,38.822526 58.9667969,38.5263021 58.8007812,38.259375 C58.6347656,37.9924479 58.394694,37.782487 58.0805664,37.6294922 C57.7664388,37.4764974 57.3929036,37.4 56.9599609,37.4 C56.1396484,37.4 55.5048828,37.646582 55.0556641,38.1397461 C54.6064453,38.6329102 54.344401,39.3401042 54.2695312,40.2613281 L54.2695312,40.2613281 L55.2509766,40.2613281 C55.4104818,38.9332031 55.9899089,38.2691406 56.9892578,38.2691406 C57.3017578,38.2691406 57.5418294,38.349707 57.7094727,38.5108398 C57.8771159,38.6719727 57.9609375,38.884375 57.9609375,39.1480469 C57.9609375,39.4703125 57.8494466,39.7697917 57.6264648,40.0464844 C57.4034831,40.3231771 57.0478516,40.6047526 56.5595703,40.8912109 C55.9280599,41.2785807 55.430013,41.6089844 55.0654297,41.8824219 C54.7008464,42.1558594 54.410319,42.4089518 54.1938477,42.6416992 C53.9773763,42.8744466 53.7666016,43.1503255 53.5615234,43.4693359 C53.2815755,43.9022786 53.0846354,44.3726562 52.9707031,44.8804687 L52.9707031,44.8804687 L57.6777344,44.8804687 Z M62.2412945,45.0025391 C63.0160341,45.0025391 63.6727724,44.7120117 64.2115093,44.130957 C64.7502463,43.5499023 65.1384299,42.8532878 65.3760601,42.0411133 C65.6136903,41.2289388 65.7325054,40.5022135 65.7325054,39.8609375 C65.7325054,38.2203125 65.0554221,37.4 63.7012554,37.4 C62.9362815,37.4 62.2852398,37.6880859 61.7481304,38.2642578 C61.2110211,38.8404297 60.8203961,39.5370443 60.5762554,40.3541016 C60.3321148,41.1711589 60.2100445,41.9003255 60.2100445,42.5416016 C60.2100445,43.3065755 60.3719911,43.9079753 60.6958843,44.3458008 C61.0197776,44.7836263 61.5349143,45.0025391 62.2412945,45.0025391 Z M62.2705914,44.1382812 C61.9450705,44.1382812 61.6952333,44.0267904 61.5210797,43.8038086 C61.346926,43.5808268 61.2598492,43.259375 61.2598492,42.8394531 C61.2598492,42.2404948 61.3583192,41.5813151 61.5552593,40.8619141 C61.7521994,40.142513 62.037844,39.5289062 62.4121929,39.0210937 C62.7865419,38.5132812 63.2064638,38.259375 63.6719586,38.259375 C64.0105002,38.259375 64.2635927,38.3724935 64.4312359,38.5987305 C64.5988791,38.8249674 64.6827007,39.1447917 64.6827007,39.5582031 C64.6827007,40.118099 64.5891135,40.763444 64.401939,41.4942383 C64.2147646,42.2250326 63.9364442,42.8484049 63.5669781,43.3643555 C63.1975119,43.880306 62.765383,44.1382812 62.2705914,44.1382812 Z M71.1017296,44.8804687 L71.795089,42.2486328 L70.9064171,42.2486328 L70.4620812,43.9283203 L67.9034874,43.9283203 C68.0239301,43.6093099 68.2460981,43.2951823 68.5699913,42.9859375 C68.8938846,42.6766927 69.365076,42.3348958 69.9835656,41.9605469 C70.6508833,41.5666667 71.1595096,41.2297526 71.5094445,40.9498047 C71.8593794,40.6698568 72.107589,40.3915365 72.2540734,40.1148437 C72.4005577,39.838151 72.4737999,39.5158854 72.4737999,39.1480469 C72.4737999,38.822526 72.3907921,38.5263021 72.2247765,38.259375 C72.0587609,37.9924479 71.8186893,37.782487 71.5045617,37.6294922 C71.1904341,37.4764974 70.8168989,37.4 70.3839562,37.4 C69.5636437,37.4 68.9288781,37.646582 68.4796593,38.1397461 C68.0304406,38.6329102 67.7683963,39.3401042 67.6935265,40.2613281 L67.6935265,40.2613281 L68.6749718,40.2613281 C68.834477,38.9332031 69.4139041,38.2691406 70.4132531,38.2691406 C70.7257531,38.2691406 70.9658247,38.349707 71.1334679,38.5108398 C71.3011111,38.6719727 71.3849327,38.884375 71.3849327,39.1480469 C71.3849327,39.4703125 71.2734419,39.7697917 71.0504601,40.0464844 C70.8274783,40.3231771 70.4718468,40.6047526 69.9835656,40.8912109 C69.3520551,41.2785807 68.8540083,41.6089844 68.4894249,41.8824219 C68.1248416,42.1558594 67.8343143,42.4089518 67.6178429,42.6416992 C67.4013716,42.8744466 67.1905968,43.1503255 66.9855187,43.4693359 C66.7055708,43.9022786 66.5086307,44.3726562 66.3946984,44.8804687 L66.3946984,44.8804687 L71.1017296,44.8804687 Z M77.0471257,44.8804687 L77.247321,43.9820312 L76.3049382,43.9820312 L77.8576726,37.5318359 L75.8361882,37.5318359 L75.6262272,38.4107422 L76.6272038,38.4107422 L75.2844304,43.9820312 L74.2883366,43.9820312 L74.0783757,44.8804687 L77.0471257,44.8804687 Z" id="2021" fill="#FFF034" fill-rule="nonzero"></path>
            </g>
            <g id="Group-8" transform="translate(1.000000, 35.000000)" fill-rule="nonzero">
                <path d="M4.04345703,9.56591797 L4.31640625,8.43603516 L3.40869141,8.43603516 L5.12255859,1.1171875 L7.19189453,1.1171875 L6.62060547,3.53564453 L7.75048828,3.53564453 L8.58203125,0 L0.831542969,0 L0,3.53564453 L1.15527344,3.53564453 L1.70117188,1.1171875 L3.74511719,1.1171875 L2.03125,8.43603516 L1.15527344,8.43603516 L0.907714844,9.56591797 L4.04345703,9.56591797 Z M11.4296985,9.56591797 L11.6899524,8.43603516 L10.5981555,8.43603516 L10.8838,7.12207031 C11.1080839,6.13606771 11.4804797,5.36905924 12.0009875,4.82104492 C12.5214953,4.2730306 13.192231,3.99902344 14.0131946,3.99902344 C14.059744,3.99902344 14.1697701,4.00960286 14.3432727,4.03076172 L14.3432727,4.03076172 L14.6416125,2.80566406 L14.3686633,2.80566406 C13.6492623,2.80566406 13.0599882,2.96118164 12.6008411,3.2722168 C12.1416939,3.58325195 11.7174589,4.09000651 11.328136,4.79248047 L11.328136,4.79248047 L11.7661243,2.89453125 L9.60792113,2.89453125 L9.3222766,4.03076172 L10.3505969,4.03076172 L9.33497191,8.43603516 L8.46534301,8.43603516 L8.19239379,9.56591797 L11.4296985,9.56591797 Z M18.2700415,9.76269531 C18.8709529,9.76269531 19.4549373,9.62410482 20.0219946,9.34692383 C20.5890519,9.06974284 21.0016496,8.70898438 21.2597876,8.26464844 L21.2597876,8.26464844 L19.958518,7.71875 C19.5099503,8.35351562 18.942893,8.67089844 18.2573462,8.67089844 C17.7706925,8.67089844 17.3718481,8.50797526 17.060813,8.18212891 C16.7497778,7.85628255 16.5942602,7.43733724 16.5942602,6.92529297 C16.5942602,6.76871745 16.6154191,6.63964844 16.6577368,6.53808594 L16.6577368,6.53808594 L21.8882055,6.53808594 C21.9474503,6.21647135 21.9770727,5.94352214 21.9770727,5.71923828 C21.9770727,5.14794922 21.8554093,4.63484701 21.6120825,4.17993164 C21.3687557,3.72501628 21.0280981,3.36743164 20.5901098,3.10717773 C20.1521216,2.84692383 19.6517147,2.71679688 19.0888891,2.71679688 C18.4245011,2.71679688 17.7950252,2.89876302 17.2004614,3.26269531 C16.6058976,3.6266276 16.1308813,4.12491862 15.7754126,4.75756836 C15.4199438,5.3902181 15.2422094,6.0789388 15.2422094,6.82373047 C15.2422094,7.39501953 15.3659887,7.90388997 15.6135473,8.3503418 C15.8611059,8.79679362 16.2144588,9.14379883 16.6736059,9.39135742 C17.1327531,9.63891602 17.6648983,9.76269531 18.2700415,9.76269531 Z M20.7011938,5.59863281 L16.8926001,5.59863281 C17.0999568,5.05273438 17.4057023,4.61791992 17.8098364,4.29418945 C18.2139705,3.97045898 18.6445532,3.80859375 19.1015844,3.80859375 C19.5967016,3.80859375 19.9891984,3.96411133 20.2790747,4.27514648 C20.568951,4.58618164 20.7138891,4.95963542 20.7138891,5.39550781 L20.7138891,5.39550781 L20.7011938,5.59863281 Z M41.1230908,0 L39.1489697,8.43603516 L40.0693798,8.43603516 L39.7964306,9.56591797 L37.6382275,9.56591797 L37.8223095,8.74707031 L37.6614141,8.89610799 C37.0633826,9.41881985 36.3764545,9.68017578 35.6006298,9.68017578 C35.0716585,9.68017578 34.6029899,9.55110677 34.194624,9.29296875 C33.7862581,9.03483073 33.4699332,8.67301432 33.2456494,8.20751953 C33.0213655,7.74202474 32.9092236,7.21940104 32.9092236,6.63964844 C32.9092236,5.97526042 33.0806103,5.33943685 33.4233837,4.73217773 C33.7661572,4.12491862 34.2168408,3.63720703 34.7754345,3.26904297 C35.3340283,2.90087891 35.9158968,2.71679688 36.52104,2.71679688 C37.0330843,2.71679688 37.4858837,2.81201172 37.8794384,3.00244141 C38.2729931,3.19287109 38.6348095,3.49544271 38.9648876,3.91015625 L38.9648876,3.91015625 L39.6313916,1.1171875 L38.5903759,1.1171875 L38.8506298,0 L41.1230908,0 Z M28.9634118,2.80566406 C29.458529,2.80566406 29.8362146,2.94002279 30.0964685,3.20874023 C30.3567224,3.47745768 30.4868493,3.84667969 30.4868493,4.31640625 C30.4868493,4.46875 30.4730961,4.64331055 30.4455896,4.84008789 C30.4180831,5.03686523 30.3535485,5.35530599 30.251986,5.79541016 L30.251986,5.79541016 L29.6235681,8.43603516 L30.6138025,8.43603516 L30.3408532,9.56591797 L28.1191735,9.56591797 L29.1030603,5.36376953 L29.1316895,5.21557119 C29.1845434,4.93471979 29.2109704,4.74714007 29.2109704,4.65283203 C29.2109704,4.43701172 29.1591312,4.26985677 29.0554528,4.15136719 C28.9517745,4.0328776 28.7814457,3.97363281 28.5444665,3.97363281 C28.0281905,3.97363281 27.353223,4.26985677 26.5195642,4.86230469 L26.5195642,4.86230469 L25.6753259,8.43603516 L26.6592126,8.43603516 L26.4180017,9.56591797 L23.3711267,9.56591797 L23.6313806,8.43603516 L24.4248376,8.43603516 L25.4658532,4.03076172 L24.5962243,4.03076172 L24.8564782,2.89453125 L26.9765954,2.89453125 L26.7925134,3.68798828 L27.0139994,3.53485763 C27.7442422,3.04872859 28.3940463,2.80566406 28.9634118,2.80566406 Z M36.705122,3.83398438 C36.2523225,3.83398438 35.8333772,3.97257487 35.4482861,4.24975586 C35.0631949,4.52693685 34.7574495,4.88452148 34.5310498,5.32250977 C34.30465,5.76049805 34.1914501,6.21223958 34.1914501,6.67773438 C34.1914501,7.23209635 34.3543733,7.68489583 34.6802197,8.03613281 C35.006066,8.38736979 35.4250113,8.56298828 35.9370556,8.56298828 C36.4237093,8.56298828 36.8616975,8.41805013 37.2510205,8.12817383 C37.6403434,7.83829753 37.9450309,7.46166992 38.165083,6.99829102 C38.385135,6.53491211 38.4951611,6.05989583 38.4951611,5.57324219 C38.4951611,5.08235677 38.3269482,4.66975911 37.9905224,4.33544922 C37.6540966,4.00113932 37.2256298,3.83398438 36.705122,3.83398438 Z M44.7515197,9.68017578 C45.6105692,9.68017578 46.2654357,9.50244141 46.7161193,9.14697266 C47.1668029,8.79150391 47.3921447,8.31542969 47.3921447,7.71875 C47.3921447,7.25325521 47.2599019,6.86604818 46.9954162,6.55712891 C46.7309305,6.24820964 46.2262919,5.93717448 45.4815002,5.62402344 L45.4815002,5.62402344 L45.1260314,5.484375 C44.6859273,5.3108724 44.3981669,5.16805013 44.2627502,5.0559082 C44.1273335,4.94376628 44.0596252,4.7882487 44.0596252,4.58935547 C44.0596252,4.36083984 44.1664774,4.17569987 44.3801818,4.03393555 C44.5938863,3.89217122 44.8827046,3.82128906 45.2466369,3.82128906 C45.6782775,3.82128906 46.0221089,3.90592448 46.278131,4.07519531 C46.5341532,4.24446615 46.666396,4.47086589 46.6748596,4.75439453 L46.6748596,4.75439453 L47.7920471,4.75439453 L48.2236877,2.89453125 L47.1191955,2.89453125 L46.9731994,3.37695312 C46.5161682,2.99609375 45.9448791,2.80566406 45.2593322,2.80566406 C44.7980692,2.80566406 44.3833557,2.89029948 44.0151916,3.05957031 C43.6470275,3.22884115 43.361383,3.4605306 43.158258,3.75463867 C42.955133,4.04874674 42.8535705,4.36930339 42.8535705,4.71630859 C42.8535705,5.12255859 42.973118,5.46638997 43.2122131,5.74780273 C43.4513081,6.02921549 43.8247619,6.27994792 44.3325744,6.5 L44.3325744,6.5 L44.8149963,6.69042969 C45.3016499,6.88932292 45.6465392,7.06917318 45.8496642,7.22998047 C46.0527892,7.39078776 46.1543517,7.59391276 46.1543517,7.83935547 C46.1543517,8.08902995 46.0379781,8.29427083 45.8052307,8.45507812 C45.5724833,8.61588542 45.2593322,8.69628906 44.8657775,8.69628906 C44.4172098,8.69628906 44.0585672,8.60953776 43.7898498,8.43603516 C43.5211323,8.26253255 43.3867736,8.01920573 43.3867736,7.70605469 L43.3867736,7.70605469 L42.2568908,7.70605469 L41.8125549,9.56591797 L42.9424377,9.56591797 L43.0249572,9.12158203 C43.380426,9.49397786 43.9559468,9.68017578 44.7515197,9.68017578 Z" id="Trends-Copy-6" fill="#FFF034"></path>
                <path d="M19.0888891,2.56679687 C19.6806584,2.56679687 20.2063901,2.70468761 20.6667338,2.97822517 C21.1285143,3.25261644 21.4877926,3.62953271 21.7443502,4.1091838 C21.9988605,4.58500746 22.1270727,5.12152369 22.1270727,5.71923828 C22.1270727,5.92702991 22.1028341,6.17529657 22.0536829,6.46398826 L22.0121379,6.68808594 L16.7991038,6.68808594 C16.7643138,7.42516039 16.8963861,7.79263071 17.1693163,8.07855754 C17.4521463,8.37485569 17.8154515,8.52089844 18.2573462,8.52089844 C18.8739846,8.52089844 19.3847939,8.24080701 19.7941999,7.68989577 L19.9033452,7.53293968 L21.4840181,8.19605123 C21.0717664,8.85034443 20.6529152,9.205487 20.0878671,9.48168589 C19.4994888,9.76928874 18.8934876,9.91269531 18.2700415,9.91269531 C17.6376579,9.91269531 17.0820396,9.78198661 16.6024184,9.52338899 C16.1171802,9.26176285 15.7439652,8.89485718 15.4823651,8.42308264 C15.2230107,7.95535803 15.0922094,7.42244617 15.0922094,6.82373047 C15.0922094,6.05240531 15.2765313,5.33923951 15.6446412,4.68409148 C16.0131429,4.02824621 16.5058482,3.51199857 17.1221518,3.13475934 C17.7413711,2.75573546 18.3970551,2.56679687 19.0888891,2.56679687 Z M19.1015844,3.95859375 C18.6772268,3.95859375 18.27841,4.11103183 17.9036154,4.41125995 C17.5770264,4.67287309 17.3188557,5.011307 17.1277411,5.42553576 L17.1277411,5.42553576 L20.5378578,5.10043551 L20.4990322,4.94080523 C20.4356318,4.7329767 20.3257065,4.54519239 20.169342,4.3774144 C19.9064798,4.09536525 19.5492142,3.95859375 19.1015844,3.95859375 Z M41.3122447,-0.15 L39.3381236,8.28603516 L40.2599306,8.28603516 L39.9145094,9.71591797 L37.4507629,9.71591797 L37.5806507,9.13814127 C36.9183131,9.63361836 36.292735,9.83017578 35.6006298,9.83017578 C35.0412749,9.83017578 34.5461201,9.69261385 34.1144756,9.41976085 C33.6827687,9.14686843 33.3476911,8.7648771 33.1105169,8.27262881 C32.8769192,7.78780333 32.7592236,7.24362133 32.7592236,6.63964844 C32.7592236,5.94966401 32.9367336,5.28917696 33.292757,4.65844415 C33.6476689,4.02968034 34.1145603,3.52496948 34.6928875,3.14379924 C35.2778963,2.75822526 35.8875373,2.56679688 36.52104,2.56679688 C37.0579167,2.56679687 37.5322893,2.66782884 37.9447726,2.86741752 C38.1731108,2.97790378 38.3915192,3.1240738 38.5996935,3.30634243 L38.7539006,3.44981886 L39.4280674,1.2671875 L38.4014164,1.2671875 L38.7315567,-0.15 L41.3122447,-0.15 Z M36.705122,3.98398437 C36.2837392,3.98398438 35.8941563,4.11364309 35.5359142,4.3714987 C35.1698543,4.63498135 34.8794869,4.97509301 34.6643005,5.39138818 C34.4494074,5.80711599 34.3414501,6.23581778 34.3414501,6.67773438 C34.3414501,7.189519 34.4888109,7.60925718 34.7901859,7.93411598 C35.0875225,8.25462166 35.4703829,8.41298828 35.9370556,8.41298828 C36.3905216,8.41298828 36.7986591,8.27797437 37.1614395,8.0078607 C37.5314022,7.73239934 37.8205134,7.37420227 38.0295853,6.93394511 C38.2397013,6.49148937 38.3451611,6.03798043 38.3451611,5.57324219 C38.3451611,5.12480507 38.1922983,4.74742208 37.8847915,4.4418493 C37.5760385,4.13503814 37.1821334,3.98398437 36.705122,3.98398437 Z M45.2593322,2.65566406 C45.8979403,2.65566406 46.4417307,2.8139729 46.8921802,3.12681634 L46.8921802,3.12681634 L48.4124866,2.74453125 L47.9112214,4.90439453 L46.539765,4.90439453 C46.5126821,4.52872583 46.4066801,4.34000688 46.1954039,4.20032013 C45.9599151,4.04462503 45.6425859,3.97128906 45.2466369,3.97128906 C44.9186475,3.97128906 44.6563541,4.0307356 44.463101,4.15893316 C44.4872626,5.04707554 44.7628176,5.17994936 45.1854618,5.34665053 C46.4341886,5.8854968 46.8670191,6.17652058 47.1093598,6.45957449 C47.3960573,6.79443719 47.5421447,7.21343534 47.5421447,7.71875 C47.5421447,8.36508373 47.2968603,8.87996591 46.8090122,9.26474752 C46.3370188,9.63702402 45.6531803,9.83017578 44.7515197,9.83017578 C43.953331,9.83017578 43.3687553,9.64552983 42.9876376,9.29501581 L42.9876376,9.29501581 L41.6017049,9.80294929 L42.1385056,7.55605469 L43.5280469,7.55605469 C43.5388675,7.95592345 43.6451701,8.16407023 43.871214,8.31001983 C44.1196104,8.47040175 44.4521336,8.54628906 44.8657775,8.54628906 C45.2224583,8.54628906 45.5083426,8.47788099 45.7199659,8.33166857 C45.9060636,8.20309196 46.0043517,8.0406765 46.0043517,7.83935547 C46.0043517,7.64068695 45.9204815,7.47735949 45.7565588,7.34758734 C45.5607226,7.19255035 45.2271991,7.02093909 44.7599213,6.82995297 L44.7599213,6.82995297 L44.2679048,6.6353434 C43.6272699,6.32923591 43.312244,6.09720488 43.097901,5.84492505 C42.8362935,5.53701533 42.7035705,5.1613056 42.7035705,4.71630859 C42.7035705,4.33863306 42.8137032,3.98957371 43.0348334,3.66939575 C43.2525012,3.35423086 43.557759,3.10478951 43.9525316,2.92328485 C44.3392379,2.74548885 44.7746937,2.65566406 45.2593322,2.65566406 Z M8.77140222,-0.15 L7.86930269,3.68564453 L6.4310442,3.68564453 L7.00233326,1.2671875 L5.24149068,1.2671875 L3.59787501,8.28603516 L4.50695696,8.28603516 L4.16153583,9.71591797 L0.72129148,9.71591797 L1.03458041,8.28603516 L1.91231792,8.28603516 L3.55593359,1.2671875 L1.82108741,1.2671875 L1.27518897,3.68564453 L-0.189370965,3.68564453 L0.712728556,-0.15 L8.77140222,-0.15 Z M14.2527172,2.65699916 L14.5217581,2.65789689 L14.4898147,4.19916563 C13.2372856,4.14902344 12.6021221,4.40595232 12.1097479,4.9243463 C11.6052439,5.45551111 11.2472997,6.20032222 11.0303765,7.15393476 L11.0303765,7.15393476 L10.7842677,8.28603516 L11.8784307,8.28603516 L11.5490756,9.71591797 L8.00184307,9.71591797 L8.3472642,8.28603516 L9.21561924,8.28603516 L10.16208,4.18076172 L9.1298997,4.18076172 L9.49096322,2.74453125 L11.9546819,2.74453125 L11.4742947,4.82620939 C11.6969866,3.88032104 12.0934434,3.43476058 12.5167138,3.14802899 C13.0298516,2.80041954 13.6971747,2.63412022 14.5217581,2.65789689 Z M28.9634118,2.65566406 C29.508026,2.65566406 29.9192147,2.8101132 30.2042178,3.10438463 C30.4889907,3.39841853 30.6368493,3.8007502 30.6368493,4.31640625 C30.6368493,4.47478326 30.6227425,4.65627347 30.5941452,4.86085373 C30.5702013,5.03214467 30.5188047,5.29424442 30.4391921,5.64887935 L30.4391921,5.64887935 L29.8133329,8.28603516 L30.8043532,8.28603516 L30.458932,9.71591797 L27.9299899,9.71591797 L28.9556943,5.33578246 C29.0339698,4.92362287 29.0609704,4.74346702 29.0609704,4.65283203 C28.1015652,4.12363281 27.5392077,4.35937231 26.853999,4.81434326 L26.853999,4.81434326 L25.8735545,8.28603516 L26.8446151,8.28603516 L26.5393592,9.71591797 L23.1826484,9.71591797 L23.5120034,8.28603516 L24.306153,8.28603516 L25.2762752,4.18076172 L24.4079823,4.18076172 L24.7369513,2.74453125 L27.1653793,2.74453125 L27.0225148,3.36032675 C27.8442365,2.84910569 28.4378835,2.65566406 28.9634118,2.65566406 Z" id="Trends-Copy-4" stroke="#000000" stroke-width="0.3"></path>
            </g>
        </g>
    </g>
</svg>